<svg preserveAspectRatio="none" width="100%" height="100%" overflow="visible" style="display: block;" viewBox="0 0 19.2 19" fill="none" xmlns="http://www.w3.org/2000/svg">
<g id="Icon">
<path id="Vector" d="M9.6 9.5C10.5711 9.5 11.405 9.84833 12.1017 10.545C12.7983 11.2417 13.1467 12.0861 13.1467 13.0783C13.1467 14.0706 12.7983 14.9044 12.1017 15.58C11.405 16.2556 10.5711 16.6039 9.6 16.625C8.62889 16.6461 7.795 16.3083 7.09833 15.6117C6.40167 14.915 6.05333 14.0706 6.05333 13.0783C6.05333 12.0861 6.40167 11.2417 7.09833 10.545C7.795 9.84833 8.62889 9.5 9.6 9.5ZM12.0067 13.0467C12.0067 12.4133 11.7744 11.8644 11.31 11.4C10.8456 10.9356 10.2756 10.7033 9.6 10.7033C8.92444 10.7033 8.35444 10.9356 7.89 11.4C7.42556 11.8644 7.20389 12.4239 7.225 13.0783C7.24611 13.7328 7.47833 14.2922 7.92167 14.7567C8.365 15.2211 8.92444 15.4533 9.6 15.4533C10.2756 15.4533 10.8456 15.2211 11.31 14.7567C11.7744 14.2922 12.0067 13.7222 12.0067 13.0467ZM16.7567 3.54667C16.7567 3.20889 16.6617 2.95556 16.4717 2.78667C16.2817 2.61778 16.0811 2.49111 15.87 2.40667H15.5533H3.64667H3.33C3.11889 2.49111 2.92889 2.61778 2.76 2.78667C2.59111 2.95556 2.50667 3.20889 2.50667 3.54667C2.50667 4.09556 2.67556 4.68667 3.01333 5.32C3.47778 6.16444 4.17444 6.84 5.10333 7.34667C6.28556 7.98 7.78444 8.29667 9.6 8.29667C11.4156 8.29667 12.9144 7.98 14.0967 7.34667C15.0256 6.84 15.7222 6.16444 16.1867 5.32C16.5667 4.68667 16.7567 4.09556 16.7567 3.54667ZM15.5533 3.54667C15.5533 3.8 15.49 4.07444 15.3633 4.37C15.1522 4.79222 14.8778 5.19333 14.54 5.57333C14.0756 5.99556 13.5056 6.35444 12.83 6.65C11.9011 6.98778 10.8244 7.14611 9.6 7.125C8.37556 7.10389 7.29889 6.94556 6.37 6.65C5.69444 6.35444 5.12444 5.99556 4.66 5.57333C4.32222 5.19333 4.04778 4.79222 3.83667 4.37C3.71 4.07444 3.64667 3.8 3.64667 3.54667H15.5533Z" fill="var(--fill-0, #2B547E)"/>
</g>
</svg>
