<svg preserveAspectRatio="none" width="100%" height="100%" overflow="visible" style="display: block;" viewBox="0 0 29 29" fill="none" xmlns="http://www.w3.org/2000/svg">
<g id="Icon">
<path id="Vector" d="M1.83667 8.12C1.83667 7.86222 1.91722 7.65278 2.07833 7.49167C2.23944 7.33056 2.44889 7.25 2.70667 7.25H24.07L18.3667 1.54667C18.1733 1.35333 18.0767 1.12778 18.0767 0.87C18.0767 0.612223 18.1733 0.402778 18.3667 0.241667C18.56 0.080556 18.7856 4.17233e-07 19.0433 4.17233e-07C19.3011 4.17233e-07 19.5267 0.0966671 19.72 0.29L26.97 7.54C27.0989 7.66889 27.1633 7.86222 27.1633 8.12C27.1633 8.37778 27.0989 8.60333 26.97 8.79667L19.72 16.0467C19.5267 16.24 19.3011 16.3367 19.0433 16.3367C18.7856 16.3367 18.56 16.24 18.3667 16.0467C18.1733 15.8533 18.0767 15.6278 18.0767 15.37C18.0767 15.1122 18.1733 14.9189 18.3667 14.79L24.07 9.08667H2.70667C2.44889 9.08667 2.23944 8.99 2.07833 8.79667C1.91722 8.60333 1.83667 8.37778 1.83667 8.12ZM27.1633 20.88C27.1633 20.6222 27.0828 20.3967 26.9217 20.2033C26.7606 20.01 26.5511 19.9133 26.2933 19.9133H4.93L10.6333 14.21C10.8267 14.0811 10.9233 13.8878 10.9233 13.63C10.9233 13.3722 10.8267 13.1467 10.6333 12.9533C10.44 12.76 10.2144 12.6633 9.95667 12.6633C9.69889 12.6633 9.47333 12.76 9.28 12.9533L2.03 20.2033C1.90111 20.3967 1.83667 20.6222 1.83667 20.88C1.83667 21.1378 1.90111 21.3311 2.03 21.46L9.28 28.71C9.47333 28.9033 9.69889 29 9.95667 29C10.2144 29 10.44 28.9194 10.6333 28.7583C10.8267 28.5972 10.9233 28.3878 10.9233 28.13C10.9233 27.8722 10.8267 27.6467 10.6333 27.4533L4.93 21.75H26.2933C26.5511 21.75 26.7606 21.6694 26.9217 21.5083C27.0828 21.3472 27.1633 21.1378 27.1633 20.88Z" fill="var(--fill-0, white)"/>
</g>
</svg>
