<svg preserveAspectRatio="none" width="100%" height="100%" overflow="visible" style="display: block;" viewBox="0 0 17.9972 17.9972" fill="none" xmlns="http://www.w3.org/2000/svg">
<g id="Icon" clip-path="url(#clip0_14_488)">
<path id="Vector" d="M16.4974 12.688V14.9377C16.4982 15.1465 16.4555 15.3532 16.3718 15.5446C16.2881 15.7359 16.1654 15.9077 16.0115 16.0489C15.8576 16.1901 15.676 16.2976 15.4781 16.3645C15.2803 16.4314 15.0707 16.4562 14.8627 16.4374C12.5551 16.1867 10.3386 15.3982 8.39118 14.1353C6.57934 12.984 5.04321 11.4478 3.89189 9.63599C2.62457 7.6797 1.8359 5.4524 1.58975 3.13452C1.57101 2.92715 1.59566 2.71815 1.66212 2.52083C1.72857 2.32351 1.83539 2.14219 1.97577 1.98841C2.11614 1.83464 2.287 1.71177 2.47746 1.62765C2.66791 1.54352 2.8738 1.49997 3.08202 1.49977H5.33166C5.69558 1.49619 6.04839 1.62506 6.32433 1.86237C6.60026 2.09967 6.78049 2.42921 6.83142 2.78957C6.92638 3.50951 7.10247 4.21639 7.35634 4.89674C7.45723 5.16514 7.47907 5.45684 7.41926 5.73727C7.35945 6.0177 7.22051 6.2751 7.01889 6.47899L6.06655 7.43134C7.13404 9.3087 8.68847 10.8631 10.5658 11.9306L11.5182 10.9783C11.7221 10.7767 11.9795 10.6377 12.2599 10.5779C12.5403 10.5181 12.832 10.5399 13.1004 10.6408C13.7808 10.8947 14.4877 11.0708 15.2076 11.1657C15.5719 11.2171 15.9045 11.4006 16.1424 11.6813C16.3802 11.962 16.5065 12.3202 16.4974 12.688Z" stroke="var(--stroke-0, #155DFC)" stroke-width="1.49976" stroke-linecap="round" stroke-linejoin="round"/>
</g>
<defs>
<clipPath id="clip0_14_488">
<rect width="17.9972" height="17.9972" fill="white"/>
</clipPath>
</defs>
</svg>
