<svg preserveAspectRatio="none" width="100%" height="100%" overflow="visible" style="display: block;" viewBox="0 0 19.2 19" fill="none" xmlns="http://www.w3.org/2000/svg">
<g id="Icon">
<path id="Vector" d="M12.0067 4.18C12.0067 4.01111 11.9433 3.86333 11.8167 3.73667C11.69 3.61 11.5422 3.54667 11.3733 3.54667H1.87333C1.70444 3.54667 1.56722 3.61 1.46167 3.73667C1.35611 3.86333 1.30333 4.01111 1.30333 4.18V14.82C1.30333 14.9889 1.35611 15.1367 1.46167 15.2633C1.56722 15.39 1.70444 15.4533 1.87333 15.4533H11.3733C11.5422 15.4533 11.69 15.39 11.8167 15.2633C11.9433 15.1367 12.0067 14.9889 12.0067 14.82V12.4767C12.0067 12.3078 12.0594 12.16 12.165 12.0333C12.2706 11.9067 12.4078 11.8539 12.5767 11.875C12.7456 11.8961 12.8828 11.9594 12.9883 12.065C13.0939 12.1706 13.1467 12.3078 13.1467 12.4767V14.82C13.1467 15.3267 12.9778 15.7594 12.64 16.1183C12.3022 16.4772 11.88 16.6356 11.3733 16.5933H1.87333C1.36667 16.6356 0.944445 16.4772 0.606667 16.1183C0.268889 15.7594 0.1 15.3267 0.1 14.82V4.18C0.1 3.67333 0.268889 3.24056 0.606667 2.88167C0.944445 2.52278 1.36667 2.34333 1.87333 2.34333H11.3733C11.88 2.34333 12.3022 2.52278 12.64 2.88167C12.9778 3.24056 13.1467 3.67333 13.1467 4.18V6.52333C13.1467 6.69222 13.0939 6.84 12.9883 6.96667C12.8828 7.09333 12.7456 7.14611 12.5767 7.125C12.4078 7.10389 12.26 7.04056 12.1333 6.935C12.0067 6.82944 11.9433 6.69222 11.9433 6.52333L12.0067 4.18ZM18.91 9.05667C19.0367 9.18333 19.1 9.33111 19.1 9.5C19.1 9.66889 19.0367 9.81667 18.91 9.94333L15.3633 13.49C15.2367 13.6167 15.0889 13.68 14.92 13.68C14.7511 13.68 14.6139 13.6167 14.5083 13.49C14.4028 13.3633 14.35 13.2156 14.35 13.0467C14.35 12.8778 14.4133 12.7511 14.54 12.6667L17.0733 10.07H6.62333C6.45444 10.07 6.31722 10.0172 6.21167 9.91167C6.10611 9.80611 6.05333 9.66889 6.05333 9.5C6.05333 9.33111 6.10611 9.19389 6.21167 9.08833C6.31722 8.98278 6.45444 8.93 6.62333 8.93H17.0733L14.54 6.33333C14.4133 6.24889 14.35 6.12222 14.35 5.95333C14.35 5.78444 14.4028 5.63667 14.5083 5.51C14.6139 5.38333 14.7511 5.32 14.92 5.32C15.0889 5.32 15.2367 5.38333 15.3633 5.51L18.91 9.05667Z" fill="var(--fill-0, #2B547E)"/>
</g>
</svg>
