<svg preserveAspectRatio="none" width="100%" height="100%" overflow="visible" style="display: block;" viewBox="0 0 22.5 22.5" fill="none" xmlns="http://www.w3.org/2000/svg">
<g id="image">
<path id="Vector" d="M11.25 19.6875C15.9099 19.6875 19.6875 15.9099 19.6875 11.25C19.6875 6.5901 15.9099 2.8125 11.25 2.8125C6.5901 2.8125 2.8125 6.5901 2.8125 11.25C2.8125 15.9099 6.5901 19.6875 11.25 19.6875Z" stroke="var(--stroke-0, #DC3545)" stroke-width="1.875"/>
<path id="Vector_2" d="M10.875 6.75H11.625L11.25 12.1875L10.875 6.75Z" stroke="var(--stroke-0, #DC3545)" stroke-width="1.875" stroke-linejoin="round"/>
<path id="Vector_3" d="M11.25 16.5C11.8714 16.5 12.375 15.9963 12.375 15.375C12.375 14.7537 11.8714 14.25 11.25 14.25C10.6287 14.25 10.125 14.7537 10.125 15.375C10.125 15.9963 10.6287 16.5 11.25 16.5Z" fill="var(--fill-0, #DC3545)"/>
</g>
</svg>
