<svg preserveAspectRatio="none" width="100%" height="100%" overflow="visible" style="display: block;" viewBox="0 0 29.0121 29.0121" fill="none" xmlns="http://www.w3.org/2000/svg">
<g id="Icon">
<path id="Vector" d="M28.71 28.71C29.0322 28.4522 29.0967 28.13 28.9033 27.7433L18.3667 1.35333C18.1733 0.837778 17.8028 0.563889 17.255 0.531667C16.7072 0.499445 16.2722 0.708889 15.95 1.16L10.2467 10.2467L1.16 15.95C0.708889 16.2722 0.499445 16.7072 0.531667 17.255C0.563889 17.8028 0.837778 18.1733 1.35333 18.3667L27.7433 28.9033C28.13 29.0967 28.4522 29.0322 28.71 28.71ZM11.9867 10.73L17.0133 2.9L25.6167 24.36L11.9867 10.73ZM24.36 25.6167L2.9 17.0133L10.73 11.9867L24.36 25.6167Z" fill="var(--fill-0, white)"/>
</g>
</svg>
