<svg preserveAspectRatio="none" width="100%" height="100%" overflow="visible" style="display: block;" viewBox="0 0 29 29" fill="none" xmlns="http://www.w3.org/2000/svg">
<g id="Icon">
<path id="Vector" d="M1.83667 14.5C1.83667 12.18 2.40056 10.0533 3.52833 8.12C4.65611 6.18667 6.18667 4.65611 8.12 3.52833C10.0533 2.40056 12.18 1.83667 14.5 1.83667C16.82 1.83667 18.9467 2.40056 20.88 3.52833C22.8133 4.65611 24.3439 6.18667 25.4717 8.12C26.5994 10.0533 27.1633 12.18 27.1633 14.5C27.1633 16.82 26.5994 18.9467 25.4717 20.88C24.3439 22.8133 22.8133 24.3439 20.88 25.4717C18.9467 26.5994 16.82 27.1633 14.5 27.1633C12.18 27.1633 10.0533 26.5994 8.12 25.4717C6.18667 24.3439 4.65611 22.8133 3.52833 20.88C2.40056 18.9467 1.83667 16.82 1.83667 14.5ZM29 14.5C29 11.8578 28.3556 9.425 27.0667 7.20167C25.7778 4.97833 24.0217 3.22222 21.7983 1.93333C19.575 0.644444 17.1422 0 14.5 0C11.8578 0 9.425 0.644444 7.20167 1.93333C4.97833 3.22222 3.22222 4.97833 1.93333 7.20167C0.644444 9.425 0 11.8578 0 14.5C0 17.1422 0.644444 19.575 1.93333 21.7983C3.22222 24.0217 4.97833 25.7778 7.20167 27.0667C9.425 28.3556 11.8578 29 14.5 29C17.1422 29 19.575 28.3556 21.7983 27.0667C24.0217 25.7778 25.7778 24.0217 27.0667 21.7983C28.3556 19.575 29 17.1422 29 14.5ZM15.37 20.88C15.37 21.1378 15.2894 21.3472 15.1283 21.5083C14.9672 21.6694 14.7578 21.75 14.5 21.75C14.2422 21.75 14.0328 21.6694 13.8717 21.5083C13.7106 21.3472 13.63 21.1378 13.63 20.88V10.3433L9.66667 14.21C9.53778 14.4033 9.34444 14.5 9.08667 14.5C8.82889 14.5 8.60333 14.4194 8.41 14.2583C8.21667 14.0972 8.12 13.8878 8.12 13.63C8.12 13.3722 8.21667 13.1467 8.41 12.9533L13.8233 7.54C14.0167 7.34667 14.2422 7.25 14.5 7.25C14.7578 7.25 14.9833 7.34667 15.1767 7.54L20.59 12.9533C20.7833 13.1467 20.88 13.3722 20.88 13.63C20.88 13.8878 20.7833 14.0972 20.59 14.2583C20.3967 14.4194 20.1711 14.5 19.9133 14.5C19.6556 14.5 19.4622 14.4033 19.3333 14.21L15.37 10.3433V20.88Z" fill="var(--fill-0, white)"/>
</g>
</svg>
