<svg preserveAspectRatio="none" width="100%" height="100%" overflow="visible" style="display: block;" viewBox="0 0 29 29" fill="none" xmlns="http://www.w3.org/2000/svg">
<g id="Icon">
<path id="Vector" d="M6.38 18.1733C6.12222 18.1733 5.89667 18.0767 5.70333 17.8833C5.51 17.69 5.41333 17.4644 5.41333 17.2067V2.70667C5.41333 2.44889 5.51 2.23944 5.70333 2.07833C5.89667 1.91722 6.12222 1.83667 6.38 1.83667H22.62C22.8778 1.83667 23.1033 1.91722 23.2967 2.07833C23.49 2.23944 23.5867 2.44889 23.5867 2.70667V17.2067C23.5867 17.4644 23.49 17.69 23.2967 17.8833C23.1033 18.0767 22.8778 18.1733 22.62 18.1733H19.0433C18.7856 18.1733 18.56 18.2539 18.3667 18.415C18.1733 18.5761 18.0928 18.7856 18.125 19.0433C18.1572 19.3011 18.2539 19.5106 18.415 19.6717C18.5761 19.8328 18.7856 19.9133 19.0433 19.9133H22.62C23.3933 19.9133 24.0539 19.6556 24.6017 19.14C25.1494 18.6244 25.3911 17.98 25.3267 17.2067V2.70667C25.3911 1.93333 25.1494 1.28889 24.6017 0.773334C24.0539 0.257778 23.3933 4.17233e-07 22.62 4.17233e-07H6.38C5.60667 4.17233e-07 4.96222 0.257778 4.44667 0.773334C3.93111 1.28889 3.64111 1.93333 3.57667 2.70667V17.2067C3.64111 17.98 3.93111 18.6244 4.44667 19.14C4.96222 19.6556 5.60667 19.9133 6.38 19.9133H9.95667C10.2144 19.9133 10.44 19.8328 10.6333 19.6717C10.8267 19.5106 10.9072 19.3011 10.875 19.0433C10.8428 18.7856 10.7461 18.56 10.585 18.3667C10.4239 18.1733 10.2144 18.0767 9.95667 18.0767L6.38 18.1733ZM13.8233 28.71C14.0167 28.9033 14.2422 29 14.5 29C14.7578 29 14.9833 28.9033 15.1767 28.71L20.59 23.2967C20.7833 23.1033 20.88 22.8778 20.88 22.62C20.88 22.3622 20.7833 22.1528 20.59 21.9917C20.3967 21.8306 20.1711 21.75 19.9133 21.75C19.6556 21.75 19.4622 21.8467 19.3333 22.04L15.37 25.9067V9.95667C15.37 9.69889 15.2894 9.48944 15.1283 9.32833C14.9672 9.16722 14.7578 9.08667 14.5 9.08667C14.2422 9.08667 14.0328 9.16722 13.8717 9.32833C13.7106 9.48944 13.63 9.69889 13.63 9.95667V25.9067L9.66667 22.04C9.53778 21.8467 9.34444 21.75 9.08667 21.75C8.82889 21.75 8.60333 21.8306 8.41 21.9917C8.21667 22.1528 8.12 22.3622 8.12 22.62C8.12 22.8778 8.21667 23.1033 8.41 23.2967L13.8233 28.71Z" fill="var(--fill-0, white)"/>
</g>
</svg>
