<svg preserveAspectRatio="none" width="100%" height="100%" overflow="visible" style="display: block;" viewBox="0 0 879.76 932.141" fill="none" xmlns="http://www.w3.org/2000/svg">
<g id="Capa 1" filter="url(#filter0_ddf_417_328)">
<path id="Vector" d="M459.856 781.816C456.497 770.291 443.606 763.449 431.039 766.534C418.489 769.618 411.038 781.471 414.397 792.995C417.756 804.52 430.647 811.362 443.214 808.278C455.764 805.193 463.215 793.34 459.856 781.816ZM444.595 738.6L437.143 742.593L429.692 738.6L322.302 680.994V686.271L429.692 743.876L432.198 745.223L437.143 747.885L442.071 745.223L444.595 743.876L549.734 687.476V682.184L444.595 738.6ZM444.595 738.6L437.143 742.593L429.692 738.6L322.302 680.994V686.271L429.692 743.876L432.198 745.223L437.143 747.885L442.071 745.223L444.595 743.876L549.734 687.476V682.184L444.595 738.6ZM459.856 781.816C456.497 770.291 443.606 763.449 431.039 766.534C418.489 769.618 411.038 781.471 414.397 792.995C417.756 804.52 430.647 811.362 443.214 808.278C455.764 805.193 463.215 793.34 459.856 781.816ZM459.856 781.816C456.497 770.291 443.606 763.449 431.039 766.534C418.489 769.618 411.038 781.471 414.397 792.995C417.756 804.52 430.647 811.362 443.214 808.278C455.764 805.193 463.215 793.34 459.856 781.816ZM444.595 738.6L437.143 742.593L429.692 738.6L322.302 680.994V686.271L429.692 743.876L432.198 745.223L437.143 747.885L442.071 745.223L444.595 743.876L549.734 687.476V682.184L444.595 738.6ZM444.595 738.6L437.143 742.593L429.692 738.6L322.302 680.994V686.271L429.692 743.876L432.198 745.223L437.143 747.885L442.071 745.223L444.595 743.876L549.734 687.476V682.184L444.595 738.6ZM459.856 781.816C456.497 770.291 443.606 763.449 431.039 766.534C418.489 769.618 411.038 781.471 414.397 792.995C417.756 804.52 430.647 811.362 443.214 808.278C455.764 805.193 463.215 793.34 459.856 781.816ZM459.856 781.816C456.497 770.291 443.606 763.449 431.039 766.534C418.489 769.618 411.038 781.471 414.397 792.995C417.756 804.52 430.647 811.362 443.214 808.278C455.764 805.193 463.215 793.34 459.856 781.816ZM444.595 738.6L437.143 742.593L429.692 738.6L322.302 680.994V686.271L429.692 743.876L432.198 745.223L437.143 747.885L442.071 745.223L444.595 743.876L549.734 687.476V682.184L444.595 738.6ZM437.143 742.593L429.692 738.6L322.302 680.994V686.271L429.692 743.876L432.198 745.223L437.143 747.885L442.071 745.223L444.595 743.876L549.734 687.476V682.184L444.595 738.6L437.143 742.593ZM431.039 766.518C418.489 769.602 411.038 781.456 414.397 792.98C417.756 804.504 430.647 811.347 443.214 808.262C455.764 805.177 463.215 793.324 459.856 781.8C456.497 770.276 443.606 763.433 431.039 766.518ZM437.143 742.593L429.692 738.6L322.302 680.994V686.271L429.692 743.876L432.198 745.223L437.143 747.885L442.071 745.223L444.595 743.876L549.734 687.476V682.184L444.595 738.6L437.143 742.593ZM431.039 766.518C418.489 769.602 411.038 781.456 414.397 792.98C417.756 804.504 430.647 811.347 443.214 808.262C455.764 805.177 463.215 793.324 459.856 781.8C456.497 770.276 443.606 763.433 431.039 766.518ZM459.856 781.8C456.497 770.276 443.606 763.433 431.039 766.518C418.489 769.602 411.038 781.456 414.397 792.98C417.756 804.504 430.647 811.347 443.214 808.262C455.764 805.177 463.215 793.324 459.856 781.8ZM444.595 738.584L437.143 742.577L429.692 738.584L322.302 680.978V686.255L429.692 743.861L432.198 745.207L437.143 747.869L442.071 745.207L444.595 743.861L549.734 687.461V682.168L444.595 738.584ZM444.595 738.584L437.143 742.577L429.692 738.584L322.302 680.978V686.255L429.692 743.861L432.198 745.207L437.143 747.869L442.071 745.207L444.595 743.861L549.734 687.461V682.168L444.595 738.584ZM459.856 781.8C456.497 770.276 443.606 763.433 431.039 766.518C418.489 769.602 411.038 781.456 414.397 792.98C417.756 804.504 430.647 811.347 443.214 808.262C455.764 805.177 463.215 793.324 459.856 781.8ZM459.856 781.8C456.497 770.276 443.606 763.433 431.039 766.518C418.489 769.602 411.038 781.456 414.397 792.98C417.756 804.504 430.647 811.347 443.214 808.262C455.764 805.177 463.215 793.324 459.856 781.8ZM444.595 738.584L437.143 742.577L429.692 738.584L322.302 680.978V686.255L429.692 743.861L432.198 745.207L437.143 747.869L442.071 745.207L444.595 743.861L549.734 687.461V682.168L444.595 738.584ZM444.595 738.584L437.143 742.577L429.692 738.584L322.302 680.978V686.255L429.692 743.861L432.198 745.207L437.143 747.869L442.071 745.207L444.595 743.861L549.734 687.461V682.168L444.595 738.584ZM459.856 781.8C456.497 770.276 443.606 763.433 431.039 766.518C418.489 769.602 411.038 781.456 414.397 792.98C417.756 804.504 430.647 811.347 443.214 808.262C455.764 805.177 463.215 793.324 459.856 781.8ZM435.012 503.918V719.106H439.889V503.918H435.012ZM183.844 347.934V348.122L188.771 350.768V350.58L183.844 347.934ZM183.792 461.814V464.476H188.754L183.792 461.814ZM689.932 460.921H689.881V464.491H690.477V460.64L689.932 460.937V460.921ZM172.692 313.971C169.333 302.447 156.442 295.605 143.875 298.689C131.325 301.774 123.873 313.627 127.233 325.151C130.592 336.66 143.483 343.518 156.05 340.433C168.6 337.349 176.051 325.496 172.692 313.971ZM755.597 313.971C752.238 302.447 739.347 295.605 726.78 298.689C714.23 301.774 706.778 313.627 710.138 325.151C713.497 336.66 726.388 343.518 738.955 340.433C751.505 337.349 758.956 325.496 755.597 313.971ZM182.514 347.417L183.792 348.106V345.397L182.514 347.417ZM183.844 347.949V348.137L188.771 350.783V350.595L183.844 347.949ZM191.056 336.159L190.033 335.611L188.976 337.286L188.84 337.49L191.193 336.237L191.056 336.174V336.159ZM183.844 347.949V348.137L188.771 350.783V350.595L183.844 347.949ZM437.143 204.287L322.233 265.949L327.298 268.501L437.143 209.58L552.991 271.758H553.008L557.97 269.143L437.143 204.319V204.287ZM685.498 489.685V609.359L574.595 668.875V674.152L689.233 612.663L690.46 611.989V487.055L685.498 489.701V489.685ZM188.771 609.343V490.859L183.809 488.198V611.958L297.458 672.915V667.638L188.771 609.328V609.343ZM755.597 313.956C752.238 302.432 739.347 295.589 726.78 298.674C714.23 301.758 706.778 313.611 710.138 325.136C713.497 336.644 726.388 343.502 738.955 340.418C751.505 337.333 758.956 325.48 755.597 313.956ZM685.498 489.669V609.343L574.595 668.859V674.136L689.233 612.647L690.46 611.974V487.039L685.498 489.685V489.669ZM182.514 347.417L183.792 348.106V345.397L182.514 347.417ZM183.844 347.949V348.137L188.771 350.783V350.595L183.844 347.949ZM689.932 460.937H689.881V464.507H690.477V460.655L689.932 460.953V460.937ZM437.143 204.272L322.233 265.933L327.298 268.485L437.143 209.564L552.991 271.742H553.008L557.97 269.127L437.143 204.303V204.272ZM435.012 503.934V719.121H439.889V503.934H435.012ZM188.771 609.343V490.859L183.809 488.198V611.958L297.458 672.915V667.638L188.771 609.328V609.343ZM191.073 336.143L190.05 335.595L188.993 337.271L188.857 337.474L191.21 336.221L191.073 336.159V336.143ZM183.809 461.83V464.491H188.771L183.809 461.83ZM172.692 313.971C169.333 302.447 156.442 295.605 143.875 298.689C131.325 301.774 123.873 313.627 127.233 325.151C130.592 336.66 143.483 343.518 156.05 340.433C168.6 337.349 176.051 325.496 172.692 313.971ZM172.692 313.971C169.333 302.447 156.442 295.605 143.875 298.689C131.325 301.774 123.873 313.627 127.233 325.151C130.592 336.66 143.483 343.518 156.05 340.433C168.6 337.349 176.051 325.496 172.692 313.971ZM182.514 347.417L183.792 348.106V345.397L182.514 347.417ZM183.844 347.949V348.137L188.771 350.783V350.595L183.844 347.949ZM183.792 461.83V464.491H188.754L183.792 461.83ZM191.056 336.143L190.033 335.595L188.976 337.271L188.84 337.474L191.193 336.221L191.056 336.159V336.143ZM188.754 609.343V490.859L183.792 488.198V611.958L297.441 672.915V667.638L188.754 609.328V609.343ZM434.995 503.934V719.121H439.872V503.934H434.995ZM437.126 204.272L322.216 265.933L327.281 268.485L437.126 209.564L552.974 271.742H552.991L557.953 269.127L437.126 204.303V204.272ZM689.915 460.921H689.863V464.491H690.46V460.64L689.915 460.937V460.921ZM685.498 489.669V609.343L574.595 668.859V674.136L689.233 612.647L690.46 611.974V487.039L685.498 489.685V489.669ZM755.597 313.956C752.238 302.432 739.347 295.589 726.78 298.674C714.23 301.758 706.778 313.611 710.138 325.136C713.497 336.644 726.388 343.502 738.955 340.418C751.505 337.333 758.956 325.48 755.597 313.956ZM755.597 313.956C752.238 302.432 739.347 295.589 726.78 298.674C714.23 301.758 706.778 313.611 710.138 325.136C713.497 336.644 726.388 343.502 738.955 340.418C751.505 337.333 758.956 325.48 755.597 313.956ZM685.498 489.669V609.343L574.595 668.859V674.136L689.233 612.647L690.46 611.974V487.039L685.498 489.685V489.669ZM689.915 460.921H689.863V464.491H690.46V460.64L689.915 460.937V460.921ZM437.143 204.272L322.233 265.933L327.298 268.485L437.143 209.564L552.991 271.742H553.008L557.97 269.127L437.143 204.303V204.272ZM435.012 503.934V719.121H439.889V503.934H435.012ZM188.771 609.343V490.859L183.809 488.198V611.958L297.458 672.915V667.638L188.771 609.328V609.343ZM191.073 336.143L190.05 335.595L188.993 337.271L188.857 337.474L191.21 336.221L191.073 336.159V336.143ZM183.809 461.83V464.491H188.771L183.809 461.83ZM182.531 347.417L183.809 348.106V345.397L182.531 347.417ZM183.861 347.949V348.137L188.788 350.783V350.595L183.861 347.949ZM172.692 313.971C169.333 302.447 156.442 295.605 143.875 298.689C131.325 301.774 123.873 313.627 127.233 325.151C130.592 336.66 143.483 343.518 156.05 340.433C168.6 337.349 176.051 325.496 172.692 313.971ZM172.692 313.971C169.333 302.447 156.442 295.605 143.875 298.689C131.325 301.774 123.873 313.627 127.233 325.151C130.592 336.66 143.483 343.518 156.05 340.433C168.6 337.349 176.051 325.496 172.692 313.971ZM182.514 347.417L183.792 348.106V345.397L182.514 347.417ZM183.844 347.949V348.137L188.771 350.783V350.595L183.844 347.949ZM183.792 461.83V464.491H188.754L183.792 461.83ZM191.056 336.143L190.033 335.595L188.976 337.271L188.84 337.474L191.193 336.221L191.056 336.159V336.143ZM188.754 609.343V490.859L183.792 488.198V611.958L297.441 672.915V667.638L188.754 609.328V609.343ZM434.995 503.934V719.121H439.872V503.934H434.995ZM437.126 204.272L322.216 265.933L327.281 268.485L437.126 209.564L552.974 271.742H552.991L557.953 269.127L437.126 204.303V204.272ZM689.915 460.921H689.863V464.491H690.46V460.64L689.915 460.937V460.921ZM685.498 489.669V609.343L574.595 668.859V674.136L689.233 612.647L690.46 611.974V487.039L685.498 489.685V489.669ZM755.597 313.956C752.238 302.432 739.347 295.589 726.78 298.674C714.23 301.758 706.778 313.611 710.138 325.136C713.497 336.644 726.388 343.502 738.955 340.418C751.505 337.333 758.956 325.48 755.597 313.956ZM755.597 313.956C752.238 302.432 739.347 295.589 726.78 298.674C714.23 301.758 706.778 313.611 710.138 325.136C713.497 336.644 726.388 343.502 738.955 340.418C751.505 337.333 758.956 325.48 755.597 313.956ZM685.498 489.669V609.343L574.595 668.859V674.136L689.233 612.647L690.46 611.974V487.039L685.498 489.685V489.669ZM689.915 460.921H689.863V464.491H690.46V460.64L689.915 460.937V460.921ZM437.143 204.272L322.233 265.933L327.298 268.485L437.143 209.564L552.991 271.742H553.008L557.97 269.127L437.143 204.303V204.272ZM435.012 503.934V719.121H439.889V503.934H435.012ZM188.771 609.343V490.859L183.809 488.198V611.958L297.458 672.915V667.638L188.771 609.328V609.343ZM191.073 336.143L190.05 335.595L188.993 337.271L188.857 337.474L191.21 336.221L191.073 336.159V336.143ZM183.809 461.83V464.491H188.771L183.809 461.83ZM182.531 347.417L183.809 348.106V345.397L182.531 347.417ZM183.861 347.949V348.137L188.788 350.783V350.595L183.861 347.949ZM172.692 313.971C169.333 302.447 156.442 295.605 143.875 298.689C131.325 301.774 123.873 313.627 127.233 325.151C130.592 336.66 143.483 343.518 156.05 340.433C168.6 337.349 176.051 325.496 172.692 313.971ZM172.692 313.971C169.333 302.447 156.442 295.605 143.875 298.689C131.325 301.774 123.873 313.627 127.233 325.151C130.592 336.66 143.483 343.518 156.05 340.433C168.6 337.349 176.051 325.496 172.692 313.971ZM182.514 347.417L183.792 348.106V345.397L182.514 347.417ZM183.792 461.83V464.491H188.754L183.792 461.83ZM183.844 347.949V348.137L188.771 350.783V350.595L183.844 347.949ZM191.056 336.159L190.033 335.611L188.976 337.286L188.84 337.49L191.193 336.237L191.056 336.174V336.159ZM188.754 609.359V490.875L183.792 488.213V611.974L297.441 672.93V667.654L188.754 609.343V609.359ZM434.995 503.95V719.137H439.872V503.95H434.995ZM437.126 204.287L322.216 265.949L327.281 268.501L437.126 209.58L552.974 271.758H552.991L557.953 269.143L437.126 204.319V204.287ZM678.303 338.774L678.166 338.711L677.996 338.805L678.098 338.868L678.285 338.789L678.303 338.774ZM685.106 337.349L683.589 336.519L683.043 336.221L683.486 336.566L683.895 336.879L685.14 337.396L685.396 337.49L685.106 337.333V337.349ZM689.898 460.937H689.846V464.507H690.443V460.655L689.898 460.953V460.937ZM690.153 344.724L690.256 344.88H690.426V344.724H690.136H690.153ZM690.75 347.511L690.477 347.949H690.426V347.981V348.106L690.767 347.558V347.495L690.75 347.511ZM685.464 489.701V609.375L574.561 668.89V674.167L689.198 612.678L690.426 612.005V487.07L685.464 489.716V489.701ZM755.563 313.987C752.204 302.463 739.313 295.62 726.746 298.705C714.196 301.79 706.744 313.643 710.104 325.167C713.463 336.676 726.354 343.534 738.921 340.449C751.47 337.364 758.922 325.511 755.563 313.987ZM755.563 313.987C752.204 302.463 739.313 295.62 726.746 298.705C714.196 301.79 706.744 313.643 710.104 325.167C713.463 336.676 726.354 343.534 738.921 340.449C751.47 337.364 758.922 325.511 755.563 313.987ZM690.75 347.511L690.477 347.949H690.426V347.981V348.106L690.767 347.558V347.495L690.75 347.511ZM685.464 489.701V609.375L574.561 668.89V674.167L689.198 612.678L690.426 612.005V487.07L685.464 489.716V489.701ZM690.153 344.739L690.256 344.896H690.426V344.739H690.136H690.153ZM689.898 460.953H689.846V464.523H690.443V460.671L689.898 460.968V460.953ZM685.106 337.364L683.589 336.535L683.043 336.237L683.486 336.582L683.895 336.895L685.14 337.411L685.396 337.505L685.106 337.349V337.364ZM678.303 338.789L678.166 338.727L677.996 338.821L678.098 338.883L678.285 338.805L678.303 338.789ZM437.126 204.303L322.216 265.964L327.281 268.516L437.126 209.596L552.974 271.773H552.991L557.953 269.158L437.126 204.334V204.303ZM434.995 503.965V719.153H439.872V503.965H434.995ZM188.754 609.375V490.891L183.792 488.229V611.989L297.441 672.946V667.669L188.754 609.359V609.375ZM191.056 336.174L190.033 335.626L188.976 337.302L188.84 337.505L191.193 336.253L191.056 336.19V336.174ZM183.844 347.965V348.153L188.771 350.799V350.611L183.844 347.965ZM183.792 461.845V464.507H188.754L183.792 461.845ZM182.514 347.433L183.792 348.122V345.413L182.514 347.433ZM172.692 313.987C169.333 302.463 156.442 295.62 143.875 298.705C131.325 301.79 123.873 313.643 127.233 325.167C130.592 336.676 143.483 343.534 156.05 340.449C168.6 337.364 176.051 325.511 172.692 313.987ZM172.692 313.987C169.333 302.463 156.442 295.62 143.875 298.705C131.325 301.79 123.873 313.643 127.233 325.167C130.592 336.676 143.483 343.534 156.05 340.449C168.6 337.364 176.051 325.511 172.692 313.987ZM182.514 347.433L183.792 348.122V345.413L182.514 347.433ZM183.792 461.845V464.507H188.754L183.792 461.845ZM183.844 347.965V348.153L188.771 350.799V350.611L183.844 347.965ZM191.056 336.174L190.033 335.626L188.976 337.302L188.84 337.505L191.193 336.253L191.056 336.19V336.174ZM188.754 609.375V490.891L183.792 488.229V611.989L297.441 672.946V667.669L188.754 609.359V609.375ZM434.995 503.965V719.153H439.872V503.965H434.995ZM437.126 204.303L322.216 265.964L327.281 268.516L437.126 209.596L552.974 271.773H552.991L557.953 269.158L437.126 204.334V204.303ZM678.303 338.789L678.166 338.727L677.996 338.821L678.098 338.883L678.285 338.805L678.303 338.789ZM685.106 337.364L683.589 336.535L683.043 336.237L683.486 336.582L683.895 336.895L685.14 337.411L685.396 337.505L685.106 337.349V337.364ZM689.898 460.953H689.846V464.523H690.443V460.671L689.898 460.968V460.953ZM690.153 344.739L690.256 344.896H690.426V344.739H690.136H690.153ZM690.75 347.526L690.477 347.965H690.426V347.996V348.122L690.767 347.573V347.511L690.75 347.526ZM685.464 489.716V609.39L574.561 668.906V674.183L689.198 612.694L690.426 612.021V487.086L685.464 489.732V489.716ZM755.563 314.003C752.204 302.479 739.313 295.636 726.746 298.721C714.196 301.805 706.744 313.658 710.104 325.183C713.463 336.691 726.354 343.549 738.921 340.465C751.47 337.38 758.922 325.527 755.563 314.003ZM755.563 314.003C752.204 302.479 739.313 295.636 726.746 298.721C714.196 301.805 706.744 313.658 710.104 325.183C713.463 336.691 726.354 343.549 738.921 340.465C751.47 337.38 758.922 325.527 755.563 314.003ZM690.477 347.981H690.426V348.012V348.137L690.767 347.589V347.526L690.477 347.965V347.981ZM685.464 609.39L574.561 668.906V674.183L689.198 612.694L690.426 612.021V487.086L685.464 489.732V609.406V609.39ZM690.426 344.912V344.755H690.136L690.239 344.912H690.409H690.426ZM689.829 460.984V464.523H690.426V460.671L689.881 460.968H689.829V460.984ZM683.861 336.91L685.106 337.427L685.362 337.521L685.072 337.364L683.554 336.535L683.009 336.237L683.452 336.582L683.861 336.895V336.91ZM678.098 338.899L678.285 338.805L678.149 338.727L677.979 338.821L678.081 338.883L678.098 338.899ZM322.182 265.964L327.247 268.516L437.092 209.596L552.94 271.773H552.957L557.919 269.158L437.092 204.334L322.182 265.995V265.964ZM434.961 719.168H439.838V503.981H434.961V719.168ZM188.771 490.875L183.809 488.213V611.974L297.458 672.93V667.654L188.771 609.343V490.859V490.875ZM191.073 336.143L190.05 335.595L188.993 337.271L188.857 337.474L191.21 336.221L191.073 336.159V336.143ZM188.771 350.58L183.844 347.934V348.122L188.771 350.768V350.58ZM183.809 464.491H188.771L183.809 461.83V464.491ZM183.809 345.397L182.531 347.417L183.809 348.106V345.397ZM143.892 298.689C131.342 301.774 123.891 313.627 127.25 325.151C130.609 336.66 143.5 343.518 156.067 340.433C168.617 337.349 176.068 325.496 172.709 313.971C169.35 302.447 156.459 295.605 143.892 298.689ZM439.872 90L80 283.063V669.078L439.872 862.141L799.76 669.078V283.063L439.872 90ZM784.857 661.218L439.872 846.295L94.9201 661.218V290.939L439.872 105.862L784.857 290.939V661.218ZM738.972 340.433C751.522 337.349 758.973 325.496 755.614 313.971C752.255 302.447 739.364 295.605 726.797 298.689C714.247 301.774 706.796 313.627 710.155 325.151C713.514 336.66 726.405 343.518 738.972 340.433ZM690.477 611.974V487.039L685.515 489.685V609.359L574.612 668.875V674.152L689.25 612.663L690.477 611.989V611.974ZM690.477 347.981V348.106L690.818 347.558V347.495L690.528 347.934H690.477V347.965V347.981ZM690.477 344.88V344.724H690.187L690.29 344.88H690.46H690.477ZM689.881 464.491H690.477V460.64L689.932 460.937H689.881V464.507V464.491ZM683.912 336.879L685.157 337.396L685.413 337.49L685.123 337.333L683.606 336.503L683.06 336.206L683.503 336.55L683.912 336.863V336.879ZM678.149 338.868L678.337 338.774L678.2 338.695L678.03 338.789L678.132 338.852L678.149 338.868ZM322.233 265.933L327.298 268.485L437.143 209.564L552.991 271.742H553.008L557.97 269.127L437.143 204.303L322.233 265.964V265.933ZM435.012 719.137H439.889V503.95H435.012V719.137ZM188.771 490.875L183.809 488.213V611.974L297.458 672.93V667.654L188.771 609.343V490.859V490.875ZM191.073 336.143L190.05 335.595L188.993 337.271L188.857 337.474L191.21 336.221L191.073 336.159V336.143ZM188.771 350.58L183.844 347.934V348.122L188.771 350.768V350.58ZM183.809 464.491H188.771L183.809 461.83V464.491ZM183.809 345.397L182.531 347.417L183.809 348.106V345.397ZM143.892 298.689C131.342 301.774 123.891 313.627 127.25 325.151C130.609 336.66 143.5 343.518 156.067 340.433C168.617 337.349 176.068 325.496 172.709 313.971C169.35 302.447 156.459 295.605 143.892 298.689ZM172.709 313.971C169.35 302.447 156.459 295.605 143.892 298.689C131.342 301.774 123.891 313.627 127.25 325.151C130.609 336.66 143.5 343.518 156.067 340.433C168.617 337.349 176.068 325.496 172.709 313.971ZM182.531 347.417L183.809 348.106V345.397L182.531 347.417ZM183.809 461.83V464.491H188.771L183.809 461.83ZM183.861 347.949V348.137L188.788 350.783V350.595L183.861 347.949ZM191.073 336.159L190.05 335.611L188.993 337.286L188.857 337.49L191.21 336.237L191.073 336.174V336.159ZM188.771 609.359V490.875L183.809 488.213V611.974L297.458 672.93V667.654L188.771 609.343V609.359ZM435.012 503.95V719.137H439.889V503.95H435.012ZM437.143 204.287L322.233 265.949L327.298 268.501L437.143 209.58L552.991 271.758H553.008L557.97 269.143L437.143 204.319V204.287ZM678.32 338.774L678.183 338.711L678.013 338.805L678.115 338.868L678.303 338.789L678.32 338.774ZM685.123 337.349L683.606 336.519L683.06 336.221L683.503 336.566L683.912 336.879L685.157 337.396L685.413 337.49L685.123 337.333V337.349ZM689.915 460.937H689.863V464.507H690.46V460.655L689.915 460.953V460.937ZM690.17 344.724L690.273 344.88H690.443V344.724H690.153H690.17ZM685.481 489.685V609.359L574.578 668.875V674.152L689.215 612.663L690.443 611.989V487.055L685.481 489.701V489.685ZM690.767 347.495L690.494 347.934H690.443V347.965V348.09L690.784 347.542V347.48L690.767 347.495ZM755.58 313.971C752.221 302.447 739.33 295.605 726.763 298.689C714.213 301.774 706.761 313.627 710.121 325.151C713.48 336.66 726.371 343.518 738.938 340.433C751.488 337.349 758.939 325.496 755.58 313.971ZM755.58 313.971C752.221 302.447 739.33 295.605 726.763 298.689C714.213 301.774 706.761 313.627 710.121 325.151C713.48 336.66 726.371 343.518 738.938 340.433C751.488 337.349 758.939 325.496 755.58 313.971ZM685.481 489.685V609.359L574.578 668.875V674.152L689.215 612.663L690.443 611.989V487.055L685.481 489.701V489.685ZM690.767 347.495L690.494 347.934H690.443V347.965V348.09L690.784 347.542V347.48L690.767 347.495ZM690.17 344.708L690.273 344.865H690.443V344.708H690.153H690.17ZM689.915 460.921H689.863V464.491H690.46V460.64L689.915 460.937V460.921ZM685.123 337.333L683.606 336.503L683.06 336.206L683.503 336.55L683.912 336.863L685.157 337.38L685.413 337.474L685.123 337.317V337.333ZM678.32 338.758L678.183 338.695L678.013 338.789L678.115 338.852L678.303 338.774L678.32 338.758ZM437.143 204.272L322.233 265.933L327.298 268.485L437.143 209.564L552.991 271.742H553.008L557.97 269.127L437.143 204.303V204.272ZM435.012 503.934V719.121H439.889V503.934H435.012ZM188.771 609.343V490.859L183.809 488.198V611.958L297.458 672.915V667.638L188.771 609.328V609.343ZM191.073 336.143L190.05 335.595L188.993 337.271L188.857 337.474L191.21 336.221L191.073 336.159V336.143ZM183.861 347.934V348.122L188.788 350.768V350.58L183.861 347.934ZM183.809 461.814V464.476H188.771L183.809 461.814ZM182.531 347.401L183.809 348.09V345.381L182.531 347.401ZM172.709 313.956C169.35 302.432 156.459 295.589 143.892 298.674C131.342 301.758 123.891 313.611 127.25 325.136C130.609 336.644 143.5 343.502 156.067 340.418C168.617 337.333 176.068 325.48 172.709 313.956ZM172.709 313.956C169.35 302.432 156.459 295.589 143.892 298.674C131.342 301.758 123.891 313.611 127.25 325.136C130.609 336.644 143.5 343.502 156.067 340.418C168.617 337.333 176.068 325.48 172.709 313.956ZM182.531 347.401L183.809 348.09V345.381L182.531 347.401ZM183.809 461.814V464.476H188.771L183.809 461.814ZM183.861 347.934V348.122L188.788 350.768V350.58L183.861 347.934ZM191.073 336.143L190.05 335.595L188.993 337.271L188.857 337.474L191.21 336.221L191.073 336.159V336.143ZM188.771 609.343V490.859L183.809 488.198V611.958L297.458 672.915V667.638L188.771 609.328V609.343ZM435.012 503.934V719.121H439.889V503.934H435.012ZM437.143 204.272L322.233 265.933L327.298 268.485L437.143 209.564L552.991 271.742H553.008L557.97 269.127L437.143 204.303V204.272ZM678.32 338.758L678.183 338.695L678.013 338.789L678.115 338.852L678.303 338.774L678.32 338.758ZM685.123 337.333L683.606 336.503L683.06 336.206L683.503 336.55L683.912 336.863L685.157 337.38L685.413 337.474L685.123 337.317V337.333ZM689.915 460.921H689.863V464.491H690.46V460.64L689.915 460.937V460.921ZM690.17 344.708L690.273 344.865H690.443V344.708H690.153H690.17ZM685.481 489.669V609.343L574.578 668.859V674.136L689.215 612.647L690.443 611.974V487.039L685.481 489.685V489.669ZM690.767 347.48L690.494 347.918H690.443V347.949V348.075L690.784 347.526V347.464L690.767 347.48ZM755.58 313.956C752.221 302.432 739.33 295.589 726.763 298.674C714.213 301.758 706.761 313.611 710.121 325.136C713.48 336.644 726.371 343.502 738.938 340.418C751.488 337.333 758.939 325.48 755.58 313.956ZM755.58 313.956C752.221 302.432 739.33 295.589 726.763 298.674C714.213 301.758 706.761 313.611 710.121 325.136C713.48 336.644 726.371 343.502 738.938 340.418C751.488 337.333 758.939 325.48 755.58 313.956ZM685.481 489.669V609.343L574.578 668.859V674.136L689.215 612.647L690.443 611.974V487.039L685.481 489.685V489.669ZM689.898 460.921H689.846V464.491H690.443V460.64L689.898 460.937V460.921ZM437.143 204.272L322.233 265.933L327.298 268.485L437.143 209.564L552.991 271.742H553.008L557.97 269.127L437.143 204.303V204.272ZM435.012 503.934V719.121H439.889V503.934H435.012ZM188.771 609.343V490.859L183.809 488.198V611.958L297.458 672.915V667.638L188.771 609.328V609.343ZM191.073 336.143L190.05 335.595L188.993 337.271L188.857 337.474L191.21 336.221L191.073 336.159V336.143ZM183.809 461.83V464.491H188.771L183.809 461.83ZM182.531 347.417L183.809 348.106V345.397L182.531 347.417ZM183.861 347.949V348.137L188.788 350.783V350.595L183.861 347.949ZM172.692 313.971C169.333 302.447 156.442 295.605 143.875 298.689C131.325 301.774 123.873 313.627 127.233 325.151C130.592 336.66 143.483 343.518 156.05 340.433C168.6 337.349 176.051 325.496 172.692 313.971ZM172.692 313.971C169.333 302.447 156.442 295.605 143.875 298.689C131.325 301.774 123.873 313.627 127.233 325.151C130.592 336.66 143.483 343.518 156.05 340.433C168.6 337.349 176.051 325.496 172.692 313.971ZM182.514 347.417L183.792 348.106V345.397L182.514 347.417ZM183.844 347.949V348.137L188.771 350.783V350.595L183.844 347.949ZM183.792 461.83V464.491H188.754L183.792 461.83ZM191.056 336.143L190.033 335.595L188.976 337.271L188.84 337.474L191.193 336.221L191.056 336.159V336.143ZM188.754 609.343V490.859L183.792 488.198V611.958L297.441 672.915V667.638L188.754 609.328V609.343ZM434.995 503.934V719.121H439.872V503.934H434.995ZM437.126 204.272L322.216 265.933L327.281 268.485L437.126 209.564L552.974 271.742H552.991L557.953 269.127L437.126 204.303V204.272ZM689.915 460.921H689.863V464.491H690.46V460.64L689.915 460.937V460.921ZM685.498 489.669V609.343L574.595 668.859V674.136L689.233 612.647L690.46 611.974V487.039L685.498 489.685V489.669ZM755.597 313.956C752.238 302.432 739.347 295.589 726.78 298.674C714.23 301.758 706.778 313.611 710.138 325.136C713.497 336.644 726.388 343.502 738.955 340.418C751.505 337.333 758.956 325.48 755.597 313.956ZM755.597 313.956C752.238 302.432 739.347 295.589 726.78 298.674C714.23 301.758 706.778 313.611 710.138 325.136C713.497 336.644 726.388 343.502 738.955 340.418C751.505 337.333 758.956 325.48 755.597 313.956ZM685.498 489.669V609.343L574.595 668.859V674.136L689.233 612.647L690.46 611.974V487.039L685.498 489.685V489.669ZM689.915 460.921H689.863V464.491H690.46V460.64L689.915 460.937V460.921ZM437.143 204.272L322.233 265.933L327.298 268.485L437.143 209.564L552.991 271.742H553.008L557.97 269.127L437.143 204.303V204.272ZM435.012 503.934V719.121H439.889V503.934H435.012ZM188.771 609.343V490.859L183.809 488.198V611.958L297.458 672.915V667.638L188.771 609.328V609.343ZM191.073 336.143L190.05 335.595L188.993 337.271L188.857 337.474L191.21 336.221L191.073 336.159V336.143ZM183.809 461.83V464.491H188.771L183.809 461.83ZM182.531 347.417L183.809 348.106V345.397L182.531 347.417ZM183.861 347.949V348.137L188.788 350.783V350.595L183.861 347.949ZM172.692 313.971C169.333 302.447 156.442 295.605 143.875 298.689C131.325 301.774 123.873 313.627 127.233 325.151C130.592 336.66 143.483 343.518 156.05 340.433C168.6 337.349 176.051 325.496 172.692 313.971ZM172.692 313.971C169.333 302.447 156.442 295.605 143.875 298.689C131.325 301.774 123.873 313.627 127.233 325.151C130.592 336.66 143.483 343.518 156.05 340.433C168.6 337.349 176.051 325.496 172.692 313.971ZM182.514 347.417L183.792 348.106V345.397L182.514 347.417ZM183.844 347.949V348.137L188.771 350.783V350.595L183.844 347.949ZM183.792 461.83V464.491H188.754L183.792 461.83ZM191.056 336.143L190.033 335.595L188.976 337.271L188.84 337.474L191.193 336.221L191.056 336.159V336.143ZM188.754 609.343V490.859L183.792 488.198V611.958L297.441 672.915V667.638L188.754 609.328V609.343ZM434.995 503.934V719.121H439.872V503.934H434.995ZM437.126 204.272L322.216 265.933L327.281 268.485L437.126 209.564L552.974 271.742H552.991L557.953 269.127L437.126 204.303V204.272ZM689.915 460.921H689.863V464.491H690.46V460.64L689.915 460.937V460.921ZM685.498 489.669V609.343L574.595 668.859V674.136L689.233 612.647L690.46 611.974V487.039L685.498 489.685V489.669ZM755.597 313.956C752.238 302.432 739.347 295.589 726.78 298.674C714.23 301.758 706.778 313.611 710.138 325.136C713.497 336.644 726.388 343.502 738.955 340.418C751.505 337.333 758.956 325.48 755.597 313.956ZM755.597 313.956C752.238 302.432 739.347 295.589 726.78 298.674C714.23 301.758 706.778 313.611 710.138 325.136C713.497 336.644 726.388 343.502 738.955 340.418C751.505 337.333 758.956 325.48 755.597 313.956ZM685.498 489.669V609.343L574.595 668.859V674.136L689.233 612.647L690.46 611.974V487.039L685.498 489.685V489.669ZM182.514 347.417L183.792 348.106V345.397L182.514 347.417ZM183.844 347.949V348.137L188.771 350.783V350.595L183.844 347.949ZM689.932 460.937H689.881V464.507H690.477V460.655L689.932 460.953V460.937ZM437.143 204.272L322.233 265.933L327.298 268.485L437.143 209.564L552.991 271.742H553.008L557.97 269.127L437.143 204.303V204.272ZM435.012 503.934V719.121H439.889V503.934H435.012ZM188.771 609.343V490.859L183.809 488.198V611.958L297.458 672.915V667.638L188.771 609.328V609.343ZM191.073 336.143L190.05 335.595L188.993 337.271L188.857 337.474L191.21 336.221L191.073 336.159V336.143ZM183.809 461.83V464.491H188.771L183.809 461.83ZM172.692 313.971C169.333 302.447 156.442 295.605 143.875 298.689C131.325 301.774 123.873 313.627 127.233 325.151C130.592 336.66 143.483 343.518 156.05 340.433C168.6 337.349 176.051 325.496 172.692 313.971ZM683.077 336.221L683.52 336.566L683.623 336.519L683.077 336.221ZM678.337 338.774L678.2 338.711L678.03 338.805L678.132 338.868L678.32 338.789L678.337 338.774ZM690.801 347.511L690.528 347.949H690.477V347.981V348.106L690.818 347.558V347.495L690.801 347.511ZM690.204 344.724L690.307 344.88H690.477V344.724H690.187H690.204ZM685.14 337.349L685.174 337.396L685.43 337.49L685.14 337.333V337.349ZM690.801 347.511L690.528 347.949H690.477V347.981V348.106L690.818 347.558V347.495L690.801 347.511ZM690.204 344.724L690.307 344.88H690.477V344.724H690.187H690.204ZM678.217 338.711L678.047 338.805L678.149 338.868L678.32 338.774L678.183 338.711H678.217ZM678.217 338.711L678.047 338.805L678.149 338.868L678.32 338.774L678.183 338.711H678.217ZM685.157 337.349L683.64 336.519L683.094 336.221L683.537 336.566L683.947 336.879L685.191 337.396L685.447 337.49L685.157 337.333V337.349ZM690.818 347.511L690.545 347.949H690.494V347.981V348.106L690.835 347.558V347.495L690.818 347.511ZM690.222 344.724L690.324 344.88H690.494V344.724H690.204H690.222ZM690.222 344.724L690.324 344.88H690.494V344.724H690.204H690.222ZM690.835 347.511L690.563 347.949H690.511V347.981V348.106L690.852 347.558V347.495L690.835 347.511ZM685.174 337.349L683.657 336.519L683.111 336.221L683.554 336.566L683.964 336.879L685.208 337.396L685.464 337.49L685.174 337.333V337.349ZM678.234 338.711L678.064 338.805L678.166 338.868L678.337 338.774L678.2 338.711H678.234ZM678.234 338.711L678.064 338.805L678.166 338.868L678.337 338.774L678.2 338.711H678.234ZM685.174 337.349L683.657 336.519L683.111 336.221L683.554 336.566L683.964 336.879L685.208 337.396L685.464 337.49L685.174 337.333V337.349ZM690.835 347.511L690.563 347.949H690.511V347.981V348.106L690.852 347.558V347.495L690.835 347.511ZM690.239 344.724L690.341 344.88H690.511V344.724H690.222H690.239ZM678.251 338.711L678.081 338.805L678.183 338.868L678.354 338.774L678.217 338.711H678.251ZM685.191 337.349L683.674 336.519L683.128 336.221L683.571 336.566L683.981 336.879L685.225 337.396L685.481 337.49L685.191 337.333V337.349ZM690.852 347.511L690.58 347.949H690.528V347.981V348.106L690.869 347.558V347.495L690.852 347.511ZM690.256 344.724L690.358 344.88H690.528V344.724H690.239H690.256ZM690.256 344.724L690.358 344.88H690.528V344.724H690.239H690.256ZM690.869 347.511L690.597 347.949H690.545V347.981V348.106L690.887 347.558V347.495L690.869 347.511ZM685.208 337.349L683.691 336.519L683.145 336.221L683.589 336.566L683.998 336.879L685.243 337.396L685.498 337.49L685.208 337.333V337.349ZM678.268 338.711L678.098 338.805L678.2 338.868L678.371 338.774L678.234 338.711H678.268ZM678.268 338.711L678.098 338.805L678.2 338.868L678.371 338.774L678.234 338.711H678.268ZM685.208 337.349L683.691 336.519L683.145 336.221L683.589 336.566L683.998 336.879L685.243 337.396L685.498 337.49L685.208 337.333V337.349ZM690.869 347.511L690.597 347.949H690.545V347.981V348.106L690.887 347.558V347.495L690.869 347.511ZM690.273 344.724L690.375 344.88H690.545V344.724H690.256H690.273ZM690.273 344.724L690.375 344.88H690.545V344.724H690.256H690.273ZM678.285 338.711L678.115 338.805L678.217 338.868L678.388 338.774L678.251 338.711H678.285ZM678.285 338.711L678.115 338.805L678.217 338.868L678.388 338.774L678.251 338.711H678.285ZM690.29 344.724L690.392 344.88H690.563V344.724H690.273H690.29ZM690.904 347.511L690.631 347.949H690.58V347.981V348.106L690.921 347.558V347.495L690.904 347.511ZM678.303 338.711L678.132 338.805L678.234 338.868L678.405 338.774L678.268 338.711H678.303ZM690.477 344.724H690.307L690.409 344.88H690.58L690.477 344.724ZM690.58 347.981V348.106V347.965V347.981ZM685.243 337.349L683.725 336.519L683.179 336.221L683.623 336.566L684.032 336.879L685.277 337.396L685.532 337.49L685.243 337.333V337.349ZM690.904 347.511L690.631 347.949H690.58V347.981V348.106L690.921 347.558V347.495L690.904 347.511ZM690.58 347.981V348.106V347.965V347.981ZM690.58 344.724V344.88H690.409L690.307 344.724H690.597H690.58ZM690.904 347.573L690.58 348.122V347.996H690.631L690.904 347.526V347.589V347.573ZM678.439 338.789L678.251 338.883L678.149 338.805L678.32 338.711L678.456 338.774L678.439 338.789ZM690.631 460.483V464.335H690.034V460.796L690.631 460.483ZM191.244 336.049L191.073 336.143L188.993 337.255L188.908 337.302L188.771 337.49L188.84 337.458L191.193 336.206L191.363 336.112L191.227 336.049H191.244ZM689.881 460.953V464.335H689.932V460.937H689.881V460.953ZM690.511 340.089L689.915 339.713V339.901H689.863L685.447 337.521L685.413 337.49L685.157 337.396L683.912 336.879L683.503 336.566L683.06 336.221L582.746 282.389L577.784 285.004L678.047 338.789L678.217 338.695L678.354 338.758L678.166 338.852L678.064 338.774L437.229 467.983L196.342 338.758L302.351 281.888L297.27 279.32L191.431 336.096L191.261 336.19L188.908 337.443L188.84 337.474L185.088 339.494L183.878 340.167V344.849H184.202L183.878 345.366V348.075H183.929V347.918L188.857 350.564V350.752L183.929 348.106V461.642L188.891 464.304H198.832V355.919L437.263 483.829L675.694 355.919V464.304H689.966V460.921H690.017V460.765L690.614 460.452V464.304H691.211V340.433L690.614 340.058L690.511 340.089ZM690.801 347.558L690.477 348.106V347.981H690.528L690.801 347.511L690.477 345.413L690.153 344.896H690.307L690.204 344.739H690.494V344.896H690.324L690.545 345.256L690.869 347.417L690.818 347.511V347.573L690.801 347.558ZM690.852 347.401L690.801 347.495L690.477 345.397L690.153 344.88H690.307L690.528 345.24L690.852 347.401Z" fill="var(--fill-0, #BEEEFF)"/>
</g>
<defs>
<filter id="filter0_ddf_417_328" x="0" y="6.25849e-07" width="879.76" height="932.141" filterUnits="userSpaceOnUse" color-interpolation-filters="sRGB">
<feFlood flood-opacity="0" result="BackgroundImageFix"/>
<feColorMatrix in="SourceAlpha" type="matrix" values="0 0 0 0 0 0 0 0 0 0 0 0 0 0 0 0 0 0 127 0" result="hardAlpha"/>
<feOffset dy="5"/>
<feGaussianBlur stdDeviation="25"/>
<feComposite in2="hardAlpha" operator="out"/>
<feColorMatrix type="matrix" values="0 0 0 0 1 0 0 0 0 1 0 0 0 0 1 0 0 0 1 0"/>
<feBlend mode="normal" in2="BackgroundImageFix" result="effect1_dropShadow_417_328"/>
<feColorMatrix in="SourceAlpha" type="matrix" values="0 0 0 0 0 0 0 0 0 0 0 0 0 0 0 0 0 0 127 0" result="hardAlpha"/>
<feOffset dy="-10"/>
<feGaussianBlur stdDeviation="40"/>
<feComposite in2="hardAlpha" operator="out"/>
<feColorMatrix type="matrix" values="0 0 0 0 0 0 0 0 0 0.211765 0 0 0 0 0.505882 0 0 0 1 0"/>
<feBlend mode="normal" in2="effect1_dropShadow_417_328" result="effect2_dropShadow_417_328"/>
<feBlend mode="normal" in="SourceGraphic" in2="effect2_dropShadow_417_328" result="shape"/>
<feGaussianBlur stdDeviation="2.5" result="effect3_foregroundBlur_417_328"/>
</filter>
</defs>
</svg>
