<svg preserveAspectRatio="none" width="100%" height="100%" overflow="visible" style="display: block;" viewBox="0 0 496.046 750.133" fill="none" xmlns="http://www.w3.org/2000/svg">
<g id="Group">
<g id="Vector">
<path d="M136.291 290.567V459.56L248.024 544.056L359.754 459.56V290.567L248.024 206.071L136.291 290.567Z" stroke="var(--stroke-0, #2290FF)" stroke-width="0.5" stroke-miterlimit="10"/>
<path d="M136.291 290.567V459.56L248.024 544.056L359.754 459.56V290.567L248.024 206.071L136.291 290.567Z" stroke="url(#paint0_linear_0_121)" stroke-width="0.5" stroke-miterlimit="10"/>
<path d="M136.291 290.567V459.56L248.024 544.056L359.754 459.56V290.567L248.024 206.071L136.291 290.567Z" stroke="url(#paint1_linear_0_121)" stroke-width="0.5" stroke-miterlimit="10"/>
</g>
<g id="Vector_2">
<path d="M121.176 279.139V470.996L248.024 566.924L374.871 470.996V279.139L248.024 183.212L121.176 279.139Z" stroke="var(--stroke-0, #2290FF)" stroke-width="0.5" stroke-miterlimit="10"/>
<path d="M121.176 279.139V470.996L248.024 566.924L374.871 470.996V279.139L248.024 183.212L121.176 279.139Z" stroke="url(#paint2_linear_0_121)" stroke-width="0.5" stroke-miterlimit="10"/>
<path d="M121.176 279.139V470.996L248.024 566.924L374.871 470.996V279.139L248.024 183.212L121.176 279.139Z" stroke="url(#paint3_linear_0_121)" stroke-width="0.5" stroke-miterlimit="10"/>
</g>
<g id="Vector_3">
<path d="M106.059 267.712V482.428L248.023 589.787L389.986 482.428V267.712L248.023 160.353L106.059 267.712Z" stroke="var(--stroke-0, #2290FF)" stroke-width="0.5" stroke-miterlimit="10"/>
<path d="M106.059 267.712V482.428L248.023 589.787L389.986 482.428V267.712L248.023 160.353L106.059 267.712Z" stroke="url(#paint4_linear_0_121)" stroke-width="0.5" stroke-miterlimit="10"/>
<path d="M106.059 267.712V482.428L248.023 589.787L389.986 482.428V267.712L248.023 160.353L106.059 267.712Z" stroke="url(#paint5_linear_0_121)" stroke-width="0.5" stroke-miterlimit="10"/>
</g>
<g id="Vector_4">
<path d="M90.9433 256.278V493.858L248.023 612.649L405.1 493.858V256.278L248.023 137.487L90.9433 256.278Z" stroke="var(--stroke-0, #2290FF)" stroke-width="0.5" stroke-miterlimit="10"/>
<path d="M90.9433 256.278V493.858L248.023 612.649L405.1 493.858V256.278L248.023 137.487L90.9433 256.278Z" stroke="url(#paint6_linear_0_121)" stroke-width="0.5" stroke-miterlimit="10"/>
<path d="M90.9433 256.278V493.858L248.023 612.649L405.1 493.858V256.278L248.023 137.487L90.9433 256.278Z" stroke="url(#paint7_linear_0_121)" stroke-width="0.5" stroke-miterlimit="10"/>
</g>
<g id="Vector_5">
<path d="M75.8281 244.844V505.288L248.023 635.508L420.217 505.288V244.844L248.023 114.624L75.8281 244.844Z" stroke="var(--stroke-0, #2290FF)" stroke-width="0.5" stroke-miterlimit="10"/>
<path d="M75.8281 244.844V505.288L248.023 635.508L420.217 505.288V244.844L248.023 114.624L75.8281 244.844Z" stroke="url(#paint8_linear_0_121)" stroke-width="0.5" stroke-miterlimit="10"/>
<path d="M75.8281 244.844V505.288L248.023 635.508L420.217 505.288V244.844L248.023 114.624L75.8281 244.844Z" stroke="url(#paint9_linear_0_121)" stroke-width="0.5" stroke-miterlimit="10"/>
</g>
<g id="Vector_6">
<path d="M60.7129 233.415V516.72L248.024 658.372L435.334 516.72V233.415L248.024 91.7607L60.7129 233.415Z" stroke="var(--stroke-0, #2290FF)" stroke-width="0.5" stroke-miterlimit="10"/>
<path d="M60.7129 233.415V516.72L248.024 658.372L435.334 516.72V233.415L248.024 91.7607L60.7129 233.415Z" stroke="url(#paint10_linear_0_121)" stroke-width="0.5" stroke-miterlimit="10"/>
<path d="M60.7129 233.415V516.72L248.024 658.372L435.334 516.72V233.415L248.024 91.7607L60.7129 233.415Z" stroke="url(#paint11_linear_0_121)" stroke-width="0.5" stroke-miterlimit="10"/>
</g>
<g id="Vector_7">
<path d="M45.5957 221.979V528.145L248.022 681.229L450.447 528.145V221.979L248.022 68.8955L45.5957 221.979Z" stroke="var(--stroke-0, #2290FF)" stroke-width="0.5" stroke-miterlimit="10"/>
<path d="M45.5957 221.979V528.145L248.022 681.229L450.447 528.145V221.979L248.022 68.8955L45.5957 221.979Z" stroke="url(#paint12_linear_0_121)" stroke-width="0.5" stroke-miterlimit="10"/>
<path d="M45.5957 221.979V528.145L248.022 681.229L450.447 528.145V221.979L248.022 68.8955L45.5957 221.979Z" stroke="url(#paint13_linear_0_121)" stroke-width="0.5" stroke-miterlimit="10"/>
</g>
<g id="Vector_8">
<path d="M30.4822 210.555V539.585L248.024 704.101L465.565 539.585V210.555L248.024 46.042L30.4822 210.555Z" stroke="var(--stroke-0, #2290FF)" stroke-width="0.5" stroke-miterlimit="10"/>
<path d="M30.4822 210.555V539.585L248.024 704.101L465.565 539.585V210.555L248.024 46.042L30.4822 210.555Z" stroke="url(#paint14_linear_0_121)" stroke-width="0.5" stroke-miterlimit="10"/>
<path d="M30.4822 210.555V539.585L248.024 704.101L465.565 539.585V210.555L248.024 46.042L30.4822 210.555Z" stroke="url(#paint15_linear_0_121)" stroke-width="0.5" stroke-miterlimit="10"/>
</g>
<g id="Vector_9">
<path d="M15.3652 199.122V551.015L248.023 726.96L480.68 551.015V199.122L248.023 23.1767L15.3652 199.122Z" stroke="var(--stroke-0, #2290FF)" stroke-width="0.5" stroke-miterlimit="10"/>
<path d="M15.3652 199.122V551.015L248.023 726.96L480.68 551.015V199.122L248.023 23.1767L15.3652 199.122Z" stroke="url(#paint16_linear_0_121)" stroke-width="0.5" stroke-miterlimit="10"/>
<path d="M15.3652 199.122V551.015L248.023 726.96L480.68 551.015V199.122L248.023 23.1767L15.3652 199.122Z" stroke="url(#paint17_linear_0_121)" stroke-width="0.5" stroke-miterlimit="10"/>
</g>
<g id="Vector_10">
<path d="M0.25 187.69V562.445L248.023 749.819L495.796 562.445V187.69L248.023 0.313439L0.25 187.69Z" stroke="var(--stroke-0, #2290FF)" stroke-width="0.5" stroke-miterlimit="10"/>
<path d="M0.25 187.69V562.445L248.023 749.819L495.796 562.445V187.69L248.023 0.313439L0.25 187.69Z" stroke="url(#paint18_linear_0_121)" stroke-width="0.5" stroke-miterlimit="10"/>
<path d="M0.25 187.69V562.445L248.023 749.819L495.796 562.445V187.69L248.023 0.313439L0.25 187.69Z" stroke="url(#paint19_linear_0_121)" stroke-width="0.5" stroke-miterlimit="10"/>
</g>
</g>
<defs>
<linearGradient id="paint0_linear_0_121" x1="221.409" y1="131.645" x2="138.683" y2="529.082" gradientUnits="userSpaceOnUse">
<stop offset="0.336538" stop-color="white" stop-opacity="0"/>
<stop offset="1" stop-color="white"/>
</linearGradient>
<linearGradient id="paint1_linear_0_121" x1="235.213" y1="-71.2631" x2="565.856" y2="185.189" gradientUnits="userSpaceOnUse">
<stop offset="0.144826" stop-color="white" stop-opacity="0"/>
<stop offset="1" stop-color="white"/>
</linearGradient>
<linearGradient id="paint2_linear_0_121" x1="217.809" y1="98.7157" x2="123.891" y2="549.924" gradientUnits="userSpaceOnUse">
<stop offset="0.336538" stop-color="white" stop-opacity="0"/>
<stop offset="1" stop-color="white"/>
</linearGradient>
<linearGradient id="paint3_linear_0_121" x1="233.481" y1="-131.644" x2="608.857" y2="159.503" gradientUnits="userSpaceOnUse">
<stop offset="0.144826" stop-color="white" stop-opacity="0"/>
<stop offset="1" stop-color="white"/>
</linearGradient>
<linearGradient id="paint4_linear_0_121" x1="214.207" y1="65.7879" x2="109.099" y2="570.761" gradientUnits="userSpaceOnUse">
<stop offset="0.336538" stop-color="white" stop-opacity="0"/>
<stop offset="1" stop-color="white"/>
</linearGradient>
<linearGradient id="paint5_linear_0_121" x1="231.746" y1="-192.021" x2="651.852" y2="133.821" gradientUnits="userSpaceOnUse">
<stop offset="0.144826" stop-color="white" stop-opacity="0"/>
<stop offset="1" stop-color="white"/>
</linearGradient>
<linearGradient id="paint6_linear_0_121" x1="210.607" y1="32.8532" x2="94.3049" y2="591.597" gradientUnits="userSpaceOnUse">
<stop offset="0.336538" stop-color="white" stop-opacity="0"/>
<stop offset="1" stop-color="white"/>
</linearGradient>
<linearGradient id="paint7_linear_0_121" x1="230.013" y1="-252.408" x2="694.852" y2="108.127" gradientUnits="userSpaceOnUse">
<stop offset="0.144826" stop-color="white" stop-opacity="0"/>
<stop offset="1" stop-color="white"/>
</linearGradient>
<linearGradient id="paint8_linear_0_121" x1="207.007" y1="-0.0784747" x2="79.5146" y2="612.431" gradientUnits="userSpaceOnUse">
<stop offset="0.336538" stop-color="white" stop-opacity="0"/>
<stop offset="1" stop-color="white"/>
</linearGradient>
<linearGradient id="paint9_linear_0_121" x1="228.281" y1="-312.789" x2="737.85" y2="82.4409" gradientUnits="userSpaceOnUse">
<stop offset="0.144826" stop-color="white" stop-opacity="0"/>
<stop offset="1" stop-color="white"/>
</linearGradient>
<linearGradient id="paint10_linear_0_121" x1="203.407" y1="-33.0112" x2="64.7221" y2="633.268" gradientUnits="userSpaceOnUse">
<stop offset="0.336538" stop-color="white" stop-opacity="0"/>
<stop offset="1" stop-color="white"/>
</linearGradient>
<linearGradient id="paint11_linear_0_121" x1="226.548" y1="-373.174" x2="780.851" y2="56.7507" gradientUnits="userSpaceOnUse">
<stop offset="0.144826" stop-color="white" stop-opacity="0"/>
<stop offset="1" stop-color="white"/>
</linearGradient>
<linearGradient id="paint12_linear_0_121" x1="199.804" y1="-65.9449" x2="49.9285" y2="654.1" gradientUnits="userSpaceOnUse">
<stop offset="0.336538" stop-color="white" stop-opacity="0"/>
<stop offset="1" stop-color="white"/>
</linearGradient>
<linearGradient id="paint13_linear_0_121" x1="224.813" y1="-433.557" x2="823.845" y2="31.0605" gradientUnits="userSpaceOnUse">
<stop offset="0.144826" stop-color="white" stop-opacity="0"/>
<stop offset="1" stop-color="white"/>
</linearGradient>
<linearGradient id="paint14_linear_0_121" x1="196.206" y1="-98.8673" x2="35.1389" y2="674.945" gradientUnits="userSpaceOnUse">
<stop offset="0.336538" stop-color="white" stop-opacity="0"/>
<stop offset="1" stop-color="white"/>
</linearGradient>
<linearGradient id="paint15_linear_0_121" x1="223.083" y1="-493.93" x2="866.846" y2="5.38229" gradientUnits="userSpaceOnUse">
<stop offset="0.144826" stop-color="white" stop-opacity="0"/>
<stop offset="1" stop-color="white"/>
</linearGradient>
<linearGradient id="paint16_linear_0_121" x1="192.605" y1="-131.802" x2="20.3458" y2="695.779" gradientUnits="userSpaceOnUse">
<stop offset="0.336538" stop-color="white" stop-opacity="0"/>
<stop offset="1" stop-color="white"/>
</linearGradient>
<linearGradient id="paint17_linear_0_121" x1="221.349" y1="-554.315" x2="909.844" y2="-20.3076" gradientUnits="userSpaceOnUse">
<stop offset="0.144826" stop-color="white" stop-opacity="0"/>
<stop offset="1" stop-color="white"/>
</linearGradient>
<linearGradient id="paint18_linear_0_121" x1="189.005" y1="-164.733" x2="5.55547" y2="716.613" gradientUnits="userSpaceOnUse">
<stop offset="0.336538" stop-color="white" stop-opacity="0"/>
<stop offset="1" stop-color="white"/>
</linearGradient>
<linearGradient id="paint19_linear_0_121" x1="219.616" y1="-614.696" x2="952.841" y2="-45.9932" gradientUnits="userSpaceOnUse">
<stop offset="0.144826" stop-color="white" stop-opacity="0"/>
<stop offset="1" stop-color="white"/>
</linearGradient>
</defs>
</svg>
