<svg preserveAspectRatio="none" width="100%" height="100%" overflow="visible" style="display: block;" viewBox="0 0 14.6673 14.6667" fill="none" xmlns="http://www.w3.org/2000/svg">
<g id="Group">
<path id="Vector" d="M6.489 2.71733C8.04193 2.53227 9.61274 2.86055 10.9616 3.65203C12.3104 4.44352 13.3631 5.65472 13.959 7.10067C14.0146 7.25034 14.0146 7.41499 13.959 7.56467C13.7136 8.15847 13.3899 8.71676 12.9963 9.22467M8.723 8.772C8.3458 9.13632 7.8406 9.3379 7.3162 9.33335C6.79181 9.32879 6.29018 9.11845 5.91937 8.74764C5.54855 8.37682 5.33821 7.8752 5.33366 7.3508C5.3291 6.82641 5.53069 6.3212 5.895 5.944" stroke="var(--stroke-0, black)" stroke-width="1.33333" stroke-linecap="round" stroke-linejoin="round"/>
<path id="Vector_2" d="M10.9863 10.9993C10.102 11.5232 9.11531 11.8507 8.09324 11.9596C7.07118 12.0685 6.03764 11.9563 5.06276 11.6306C4.08788 11.3049 3.19447 10.7733 2.44314 10.0718C1.69182 9.3704 1.10017 8.51557 0.708337 7.56533C0.652777 7.41566 0.652777 7.25101 0.708337 7.10133C1.29943 5.6679 2.33945 4.46483 3.67234 3.67267M0.667004 0.666667L14.0003 14" stroke="var(--stroke-0, black)" stroke-width="1.33333" stroke-linecap="round" stroke-linejoin="round"/>
</g>
</svg>
