<svg preserveAspectRatio="none" width="100%" height="100%" overflow="visible" style="display: block;" viewBox="0 0 28.0013 28" fill="none" xmlns="http://www.w3.org/2000/svg">
<g id="Group">
<path id="Vector" d="M12.3113 4.768C15.4172 4.39787 18.5588 5.05442 21.2565 6.6374C23.9542 8.22037 26.0596 10.6428 27.2513 13.5347C27.3625 13.834 27.3625 14.1633 27.2513 14.4627C26.7606 15.6503 26.113 16.7669 25.326 17.7827M16.7793 16.8773C16.0249 17.606 15.0145 18.0091 13.9657 18C12.917 17.9909 11.9137 17.5702 11.1721 16.8286C10.4304 16.087 10.0098 15.0837 10.0006 14.0349C9.99153 12.9862 10.3947 11.9757 11.1233 11.2213" stroke="var(--stroke-0, black)" stroke-width="1.33333" stroke-linecap="round" stroke-linejoin="round"/>
<path id="Vector_2" d="M21.306 21.332C19.5373 22.3797 17.564 23.0347 15.5198 23.2525C13.4757 23.4704 11.4086 23.2459 9.45885 22.5945C7.50909 21.9431 5.72227 20.8799 4.21962 19.477C2.71698 18.0741 1.53368 16.3645 0.750007 14.464C0.638886 14.1646 0.638886 13.8354 0.750007 13.536C1.93218 10.6691 4.01224 8.263 6.67801 6.67867M0.667341 0.666667L27.334 27.3333" stroke="var(--stroke-0, black)" stroke-width="1.33333" stroke-linecap="round" stroke-linejoin="round"/>
</g>
</svg>
