<svg preserveAspectRatio="none" width="100%" height="100%" overflow="visible" style="display: block;" viewBox="0 0 80 91.3635" fill="none" xmlns="http://www.w3.org/2000/svg">
<g id="logotipo">
<path id="Vector" d="M42.2203 81.859C41.8469 80.4954 40.4141 79.6857 39.0173 80.0507C37.6224 80.4157 36.7942 81.8182 37.1676 83.1818C37.5409 84.5454 38.9737 85.3551 40.3705 84.9901C41.7654 84.6251 42.5936 83.2226 42.2203 81.859ZM40.524 76.7455L39.6958 77.2179L38.8676 76.7455L26.9314 69.9293V70.5537L38.8676 77.3698L39.1462 77.5292L39.6958 77.8441L40.2435 77.5292L40.524 77.3698L52.2101 70.6963V70.0701L40.524 76.7455ZM40.524 76.7455L39.6958 77.2179L38.8676 76.7455L26.9314 69.9293V70.5537L38.8676 77.3698L39.1462 77.5292L39.6958 77.8441L40.2435 77.5292L40.524 77.3698L52.2101 70.6963V70.0701L40.524 76.7455ZM42.2203 81.859C41.8469 80.4954 40.4141 79.6857 39.0173 80.0507C37.6224 80.4157 36.7942 81.8182 37.1676 83.1818C37.5409 84.5454 38.9737 85.3551 40.3705 84.9901C41.7654 84.6251 42.5936 83.2226 42.2203 81.859ZM42.2203 81.859C41.8469 80.4954 40.4141 79.6857 39.0173 80.0507C37.6224 80.4157 36.7942 81.8182 37.1676 83.1818C37.5409 84.5454 38.9737 85.3551 40.3705 84.9901C41.7654 84.6251 42.5936 83.2226 42.2203 81.859ZM40.524 76.7455L39.6958 77.2179L38.8676 76.7455L26.9314 69.9293V70.5537L38.8676 77.3698L39.1462 77.5292L39.6958 77.8441L40.2435 77.5292L40.524 77.3698L52.2101 70.6963V70.0701L40.524 76.7455ZM40.524 76.7455L39.6958 77.2179L38.8676 76.7455L26.9314 69.9293V70.5537L38.8676 77.3698L39.1462 77.5292L39.6958 77.8441L40.2435 77.5292L40.524 77.3698L52.2101 70.6963V70.0701L40.524 76.7455ZM42.2203 81.859C41.8469 80.4954 40.4141 79.6857 39.0173 80.0507C37.6224 80.4157 36.7942 81.8182 37.1676 83.1818C37.5409 84.5454 38.9737 85.3551 40.3705 84.9901C41.7654 84.6251 42.5936 83.2226 42.2203 81.859ZM42.2203 81.859C41.8469 80.4954 40.4141 79.6857 39.0173 80.0507C37.6224 80.4157 36.7942 81.8182 37.1676 83.1818C37.5409 84.5454 38.9737 85.3551 40.3705 84.9901C41.7654 84.6251 42.5936 83.2226 42.2203 81.859ZM40.524 76.7455L39.6958 77.2179L38.8676 76.7455L26.9314 69.9293V70.5537L38.8676 77.3698L39.1462 77.5292L39.6958 77.8441L40.2435 77.5292L40.524 77.3698L52.2101 70.6963V70.0701L40.524 76.7455ZM39.6958 77.2179L38.8676 76.7455L26.9314 69.9293V70.5537L38.8676 77.3698L39.1462 77.5292L39.6958 77.8441L40.2435 77.5292L40.524 77.3698L52.2101 70.6963V70.0701L40.524 76.7455L39.6958 77.2179ZM39.0173 80.0489C37.6224 80.4139 36.7942 81.8164 37.1676 83.18C37.5409 84.5436 38.9737 85.3532 40.3705 84.9882C41.7654 84.6233 42.5936 83.2207 42.2203 81.8571C41.8469 80.4935 40.4141 79.6839 39.0173 80.0489ZM39.6958 77.2179L38.8676 76.7455L26.9314 69.9293V70.5537L38.8676 77.3698L39.1462 77.5292L39.6958 77.8441L40.2435 77.5292L40.524 77.3698L52.2101 70.6963V70.0701L40.524 76.7455L39.6958 77.2179ZM39.0173 80.0489C37.6224 80.4139 36.7942 81.8164 37.1676 83.18C37.5409 84.5436 38.9737 85.3532 40.3705 84.9882C41.7654 84.6233 42.5936 83.2207 42.2203 81.8571C41.8469 80.4935 40.4141 79.6839 39.0173 80.0489ZM42.2203 81.8571C41.8469 80.4935 40.4141 79.6839 39.0173 80.0489C37.6224 80.4139 36.7942 81.8164 37.1676 83.18C37.5409 84.5436 38.9737 85.3532 40.3705 84.9882C41.7654 84.6233 42.5936 83.2207 42.2203 81.8571ZM40.524 76.7436L39.6958 77.2161L38.8676 76.7436L26.9314 69.9274V70.5518L38.8676 77.368L39.1462 77.5273L39.6958 77.8423L40.2435 77.5273L40.524 77.368L52.2101 70.6945V70.0682L40.524 76.7436ZM40.524 76.7436L39.6958 77.2161L38.8676 76.7436L26.9314 69.9274V70.5518L38.8676 77.368L39.1462 77.5273L39.6958 77.8423L40.2435 77.5273L40.524 77.368L52.2101 70.6945V70.0682L40.524 76.7436ZM42.2203 81.8571C41.8469 80.4935 40.4141 79.6839 39.0173 80.0489C37.6224 80.4139 36.7942 81.8164 37.1676 83.18C37.5409 84.5436 38.9737 85.3532 40.3705 84.9882C41.7654 84.6233 42.5936 83.2207 42.2203 81.8571ZM42.2203 81.8571C41.8469 80.4935 40.4141 79.6839 39.0173 80.0489C37.6224 80.4139 36.7942 81.8164 37.1676 83.18C37.5409 84.5436 38.9737 85.3532 40.3705 84.9882C41.7654 84.6233 42.5936 83.2207 42.2203 81.8571ZM40.524 76.7436L39.6958 77.2161L38.8676 76.7436L26.9314 69.9274V70.5518L38.8676 77.368L39.1462 77.5273L39.6958 77.8423L40.2435 77.5273L40.524 77.368L52.2101 70.6945V70.0682L40.524 76.7436ZM40.524 76.7436L39.6958 77.2161L38.8676 76.7436L26.9314 69.9274V70.5518L38.8676 77.368L39.1462 77.5273L39.6958 77.8423L40.2435 77.5273L40.524 77.368L52.2101 70.6945V70.0682L40.524 76.7436ZM42.2203 81.8571C41.8469 80.4935 40.4141 79.6839 39.0173 80.0489C37.6224 80.4139 36.7942 81.8164 37.1676 83.18C37.5409 84.5436 38.9737 85.3532 40.3705 84.9882C41.7654 84.6233 42.5936 83.2207 42.2203 81.8571ZM39.4589 48.9768V74.4388H40.001V48.9768H39.4589ZM11.542 30.52V30.5422L12.0897 30.8553V30.8331L11.542 30.52ZM11.5363 43.9948V44.3098H12.0879L11.5363 43.9948ZM67.7928 43.8892H67.7871V44.3116H67.8534V43.8559L67.7928 43.8911V43.8892ZM10.3025 26.5014C9.92917 25.1378 8.49637 24.3281 7.09958 24.6931C5.70468 25.0581 4.87646 26.4606 5.24982 27.8242C5.62319 29.186 7.05599 29.9975 8.45278 29.6325C9.84768 29.2675 10.6759 27.865 10.3025 26.5014ZM75.0913 26.5014C74.718 25.1378 73.2852 24.3281 71.8884 24.6931C70.4935 25.0581 69.6653 26.4606 70.0386 27.8242C70.412 29.186 71.8448 29.9975 73.2416 29.6325C74.6365 29.2675 75.4647 27.865 75.0913 26.5014ZM11.3942 30.4588L11.5363 30.5403V30.2198L11.3942 30.4588ZM11.542 30.5218V30.544L12.0897 30.8572V30.8349L11.542 30.5218ZM12.3437 29.1267L12.23 29.0619L12.1125 29.2601L12.0973 29.2842L12.3589 29.136L12.3437 29.1286V29.1267ZM11.542 30.5218V30.544L12.0897 30.8572V30.8349L11.542 30.5218ZM39.6958 13.523L26.9238 20.8191L27.4867 21.1211L39.6958 14.1493L52.5721 21.5064H52.574L53.1255 21.197L39.6958 13.5268V13.523ZM67.3 47.2927V61.4531L54.9734 68.4953V69.1196L67.7151 61.844L67.8515 61.7643V46.9814L67.3 47.2945V47.2927ZM12.0897 61.4512V47.4316L11.5382 47.1167V61.7606L24.17 68.9733V68.3489L12.0897 61.4494V61.4512ZM75.0913 26.4995C74.718 25.1359 73.2852 24.3263 71.8884 24.6913C70.4935 25.0563 69.6653 26.4588 70.0386 27.8224C70.412 29.1841 71.8448 29.9956 73.2416 29.6306C74.6365 29.2657 75.4647 27.8631 75.0913 26.4995ZM67.3 47.2908V61.4512L54.9734 68.4934V69.1178L67.7151 61.8421L67.8515 61.7625V46.9796L67.3 47.2927V47.2908ZM11.3942 30.4588L11.5363 30.5403V30.2198L11.3942 30.4588ZM11.542 30.5218V30.544L12.0897 30.8572V30.8349L11.542 30.5218ZM67.7928 43.8911H67.7871V44.3135H67.8534V43.8577L67.7928 43.8929V43.8911ZM39.6958 13.5212L26.9238 20.8172L27.4867 21.1192L39.6958 14.1474L52.5721 21.5046H52.574L53.1255 21.1952L39.6958 13.5249V13.5212ZM39.4589 48.9787V74.4407H40.001V48.9787H39.4589ZM12.0897 61.4512V47.4316L11.5382 47.1167V61.7606L24.17 68.9733V68.3489L12.0897 61.4494V61.4512ZM12.3456 29.1249L12.2319 29.06L12.1144 29.2582L12.0992 29.2823L12.3608 29.1341L12.3456 29.1267V29.1249ZM11.5382 43.9967V44.3116H12.0897L11.5382 43.9967ZM10.3025 26.5014C9.92917 25.1378 8.49637 24.3281 7.09958 24.6931C5.70468 25.0581 4.87646 26.4606 5.24982 27.8242C5.62319 29.186 7.05599 29.9975 8.45278 29.6325C9.84768 29.2675 10.6759 27.865 10.3025 26.5014ZM10.3025 26.5014C9.92917 25.1378 8.49637 24.3281 7.09958 24.6931C5.70468 25.0581 4.87646 26.4606 5.24982 27.8242C5.62319 29.186 7.05599 29.9975 8.45278 29.6325C9.84768 29.2675 10.6759 27.865 10.3025 26.5014ZM11.3942 30.4588L11.5363 30.5403V30.2198L11.3942 30.4588ZM11.542 30.5218V30.544L12.0897 30.8572V30.8349L11.542 30.5218ZM11.5363 43.9967V44.3116H12.0879L11.5363 43.9967ZM12.3437 29.1249L12.23 29.06L12.1125 29.2582L12.0973 29.2823L12.3589 29.1341L12.3437 29.1267V29.1249ZM12.0879 61.4512V47.4316L11.5363 47.1167V61.7606L24.1681 68.9733V68.3489L12.0879 61.4494V61.4512ZM39.457 48.9787V74.4407H39.9991V48.9787H39.457ZM39.6939 13.5212L26.9219 20.8172L27.4848 21.1192L39.6939 14.1474L52.5702 21.5046H52.5721L53.1236 21.1952L39.6939 13.5249V13.5212ZM67.7909 43.8892H67.7852V44.3116H67.8515V43.8559L67.7909 43.8911V43.8892ZM67.3 47.2908V61.4512L54.9734 68.4934V69.1178L67.7151 61.8421L67.8515 61.7625V46.9796L67.3 47.2927V47.2908ZM75.0913 26.4995C74.718 25.1359 73.2852 24.3263 71.8884 24.6913C70.4935 25.0563 69.6653 26.4588 70.0386 27.8224C70.412 29.1841 71.8448 29.9956 73.2416 29.6306C74.6365 29.2657 75.4647 27.8631 75.0913 26.4995ZM75.0913 26.4995C74.718 25.1359 73.2852 24.3263 71.8884 24.6913C70.4935 25.0563 69.6653 26.4588 70.0386 27.8224C70.412 29.1841 71.8448 29.9956 73.2416 29.6306C74.6365 29.2657 75.4647 27.8631 75.0913 26.4995ZM67.3 47.2908V61.4512L54.9734 68.4934V69.1178L67.7151 61.8421L67.8515 61.7625V46.9796L67.3 47.2927V47.2908ZM67.7909 43.8892H67.7852V44.3116H67.8515V43.8559L67.7909 43.8911V43.8892ZM39.6958 13.5212L26.9238 20.8172L27.4867 21.1192L39.6958 14.1474L52.5721 21.5046H52.574L53.1255 21.1952L39.6958 13.5249V13.5212ZM39.4589 48.9787V74.4407H40.001V48.9787H39.4589ZM12.0897 61.4512V47.4316L11.5382 47.1167V61.7606L24.17 68.9733V68.3489L12.0897 61.4494V61.4512ZM12.3456 29.1249L12.2319 29.06L12.1144 29.2582L12.0992 29.2823L12.3608 29.1341L12.3456 29.1267V29.1249ZM11.5382 43.9967V44.3116H12.0897L11.5382 43.9967ZM11.3961 30.4588L11.5382 30.5403V30.2198L11.3961 30.4588ZM11.5439 30.5218V30.544L12.0916 30.8572V30.8349L11.5439 30.5218ZM10.3025 26.5014C9.92917 25.1378 8.49637 24.3281 7.09958 24.6931C5.70468 25.0581 4.87646 26.4606 5.24982 27.8242C5.62319 29.186 7.05599 29.9975 8.45278 29.6325C9.84768 29.2675 10.6759 27.865 10.3025 26.5014ZM10.3025 26.5014C9.92917 25.1378 8.49637 24.3281 7.09958 24.6931C5.70468 25.0581 4.87646 26.4606 5.24982 27.8242C5.62319 29.186 7.05599 29.9975 8.45278 29.6325C9.84768 29.2675 10.6759 27.865 10.3025 26.5014ZM11.3942 30.4588L11.5363 30.5403V30.2198L11.3942 30.4588ZM11.542 30.5218V30.544L12.0897 30.8572V30.8349L11.542 30.5218ZM11.5363 43.9967V44.3116H12.0879L11.5363 43.9967ZM12.3437 29.1249L12.23 29.06L12.1125 29.2582L12.0973 29.2823L12.3589 29.1341L12.3437 29.1267V29.1249ZM12.0879 61.4512V47.4316L11.5363 47.1167V61.7606L24.1681 68.9733V68.3489L12.0879 61.4494V61.4512ZM39.457 48.9787V74.4407H39.9991V48.9787H39.457ZM39.6939 13.5212L26.9219 20.8172L27.4848 21.1192L39.6939 14.1474L52.5702 21.5046H52.5721L53.1236 21.1952L39.6939 13.5249V13.5212ZM67.7909 43.8892H67.7852V44.3116H67.8515V43.8559L67.7909 43.8911V43.8892ZM67.3 47.2908V61.4512L54.9734 68.4934V69.1178L67.7151 61.8421L67.8515 61.7625V46.9796L67.3 47.2927V47.2908ZM75.0913 26.4995C74.718 25.1359 73.2852 24.3263 71.8884 24.6913C70.4935 25.0563 69.6653 26.4588 70.0386 27.8224C70.412 29.1841 71.8448 29.9956 73.2416 29.6306C74.6365 29.2657 75.4647 27.8631 75.0913 26.4995ZM75.0913 26.4995C74.718 25.1359 73.2852 24.3263 71.8884 24.6913C70.4935 25.0563 69.6653 26.4588 70.0386 27.8224C70.412 29.1841 71.8448 29.9956 73.2416 29.6306C74.6365 29.2657 75.4647 27.8631 75.0913 26.4995ZM67.3 47.2908V61.4512L54.9734 68.4934V69.1178L67.7151 61.8421L67.8515 61.7625V46.9796L67.3 47.2927V47.2908ZM67.7909 43.8892H67.7852V44.3116H67.8515V43.8559L67.7909 43.8911V43.8892ZM39.6958 13.5212L26.9238 20.8172L27.4867 21.1192L39.6958 14.1474L52.5721 21.5046H52.574L53.1255 21.1952L39.6958 13.5249V13.5212ZM39.4589 48.9787V74.4407H40.001V48.9787H39.4589ZM12.0897 61.4512V47.4316L11.5382 47.1167V61.7606L24.17 68.9733V68.3489L12.0897 61.4494V61.4512ZM12.3456 29.1249L12.2319 29.06L12.1144 29.2582L12.0992 29.2823L12.3608 29.1341L12.3456 29.1267V29.1249ZM11.5382 43.9967V44.3116H12.0897L11.5382 43.9967ZM11.3961 30.4588L11.5382 30.5403V30.2198L11.3961 30.4588ZM11.5439 30.5218V30.544L12.0916 30.8572V30.8349L11.5439 30.5218ZM10.3025 26.5014C9.92917 25.1378 8.49637 24.3281 7.09958 24.6931C5.70468 25.0581 4.87646 26.4606 5.24982 27.8242C5.62319 29.186 7.05599 29.9975 8.45278 29.6325C9.84768 29.2675 10.6759 27.865 10.3025 26.5014ZM10.3025 26.5014C9.92917 25.1378 8.49637 24.3281 7.09958 24.6931C5.70468 25.0581 4.87646 26.4606 5.24982 27.8242C5.62319 29.186 7.05599 29.9975 8.45278 29.6325C9.84768 29.2675 10.6759 27.865 10.3025 26.5014ZM11.3942 30.4588L11.5363 30.5403V30.2198L11.3942 30.4588ZM11.5363 43.9967V44.3116H12.0879L11.5363 43.9967ZM11.542 30.5218V30.544L12.0897 30.8572V30.8349L11.542 30.5218ZM12.3437 29.1267L12.23 29.0619L12.1125 29.2601L12.0973 29.2842L12.3589 29.136L12.3437 29.1286V29.1267ZM12.0879 61.4531V47.4335L11.5363 47.1185V61.7625L24.1681 68.9751V68.3508L12.0879 61.4512V61.4531ZM39.457 48.9805V74.4425H39.9991V48.9805H39.457ZM39.6939 13.523L26.9219 20.8191L27.4848 21.1211L39.6939 14.1493L52.5702 21.5064H52.5721L53.1236 21.197L39.6939 13.5268V13.523ZM66.5002 29.4361L66.485 29.4287L66.4661 29.4398L66.4775 29.4472L66.4983 29.438L66.5002 29.4361ZM67.2564 29.2675L67.0877 29.1693L67.0271 29.1341L67.0764 29.1749L67.1219 29.2119L67.2602 29.2731L67.2886 29.2842L67.2564 29.2657V29.2675ZM67.789 43.8911H67.7833V44.3135H67.8496V43.8577L67.789 43.8929V43.8911ZM67.8174 30.1401L67.8288 30.1587H67.8477V30.1401H67.8155H67.8174ZM67.8837 30.4699L67.8534 30.5218H67.8477V30.5255V30.5403L67.8856 30.4755V30.4681L67.8837 30.4699ZM67.2962 47.2945V61.4549L54.9696 68.4971V69.1215L67.7113 61.8458L67.8477 61.7662V46.9833L67.2962 47.2964V47.2945ZM75.0875 26.5032C74.7142 25.1396 73.2814 24.33 71.8846 24.695C70.4897 25.06 69.6615 26.4625 70.0348 27.8261C70.4082 29.1878 71.841 29.9993 73.2378 29.6344C74.6327 29.2694 75.4609 27.8669 75.0875 26.5032ZM75.0875 26.5032C74.7142 25.1396 73.2814 24.33 71.8846 24.695C70.4897 25.06 69.6615 26.4625 70.0348 27.8261C70.4082 29.1878 71.841 29.9993 73.2378 29.6344C74.6327 29.2694 75.4609 27.8669 75.0875 26.5032ZM67.8837 30.4699L67.8534 30.5218H67.8477V30.5255V30.5403L67.8856 30.4755V30.4681L67.8837 30.4699ZM67.2962 47.2945V61.4549L54.9696 68.4971V69.1215L67.7113 61.8458L67.8477 61.7662V46.9833L67.2962 47.2964V47.2945ZM67.8174 30.142L67.8288 30.1605H67.8477V30.142H67.8155H67.8174ZM67.789 43.8929H67.7833V44.3154H67.8496V43.8596L67.789 43.8948V43.8929ZM67.2564 29.2694L67.0877 29.1712L67.0271 29.136L67.0764 29.1767L67.1219 29.2138L67.2602 29.2749L67.2886 29.286L67.2564 29.2675V29.2694ZM66.5002 29.438L66.485 29.4306L66.4661 29.4417L66.4775 29.4491L66.4983 29.4398L66.5002 29.438ZM39.6939 13.5249L26.9219 20.8209L27.4848 21.1229L39.6939 14.1511L52.5702 21.5083H52.5721L53.1236 21.1989L39.6939 13.5286V13.5249ZM39.457 48.9824V74.4444H39.9991V48.9824H39.457ZM12.0879 61.4549V47.4353L11.5363 47.1204V61.7643L24.1681 68.977V68.3526L12.0879 61.4531V61.4549ZM12.3437 29.1286L12.23 29.0637L12.1125 29.262L12.0973 29.286L12.3589 29.1378L12.3437 29.1304V29.1286ZM11.542 30.5237V30.5459L12.0897 30.859V30.8368L11.542 30.5237ZM11.5363 43.9985V44.3135H12.0879L11.5363 43.9985ZM11.3942 30.4607L11.5363 30.5422V30.2217L11.3942 30.4607ZM10.3025 26.5032C9.92917 25.1396 8.49637 24.33 7.09958 24.695C5.70468 25.06 4.87646 26.4625 5.24982 27.8261C5.62319 29.1878 7.05599 29.9993 8.45278 29.6344C9.84768 29.2694 10.6759 27.8669 10.3025 26.5032ZM10.3025 26.5032C9.92917 25.1396 8.49637 24.33 7.09958 24.695C5.70468 25.06 4.87646 26.4625 5.24982 27.8261C5.62319 29.1878 7.05599 29.9993 8.45278 29.6344C9.84768 29.2694 10.6759 27.8669 10.3025 26.5032ZM11.3942 30.4607L11.5363 30.5422V30.2217L11.3942 30.4607ZM11.5363 43.9985V44.3135H12.0879L11.5363 43.9985ZM11.542 30.5237V30.5459L12.0897 30.859V30.8368L11.542 30.5237ZM12.3437 29.1286L12.23 29.0637L12.1125 29.262L12.0973 29.286L12.3589 29.1378L12.3437 29.1304V29.1286ZM12.0879 61.4549V47.4353L11.5363 47.1204V61.7643L24.1681 68.977V68.3526L12.0879 61.4531V61.4549ZM39.457 48.9824V74.4444H39.9991V48.9824H39.457ZM39.6939 13.5249L26.9219 20.8209L27.4848 21.1229L39.6939 14.1511L52.5702 21.5083H52.5721L53.1236 21.1989L39.6939 13.5286V13.5249ZM66.5002 29.438L66.485 29.4306L66.4661 29.4417L66.4775 29.4491L66.4983 29.4398L66.5002 29.438ZM67.2564 29.2694L67.0877 29.1712L67.0271 29.136L67.0764 29.1767L67.1219 29.2138L67.2602 29.2749L67.2886 29.286L67.2564 29.2675V29.2694ZM67.789 43.8929H67.7833V44.3154H67.8496V43.8596L67.789 43.8948V43.8929ZM67.8174 30.142L67.8288 30.1605H67.8477V30.142H67.8155H67.8174ZM67.8837 30.4718L67.8534 30.5237H67.8477V30.5274V30.5422L67.8856 30.4773V30.4699L67.8837 30.4718ZM67.2962 47.2964V61.4568L54.9696 68.499V69.1233L67.7113 61.8477L67.8477 61.768V46.9851L67.2962 47.2982V47.2964ZM75.0875 26.5051C74.7142 25.1415 73.2814 24.3318 71.8846 24.6968C70.4897 25.0618 69.6615 26.4643 70.0348 27.8279C70.4082 29.1897 71.841 30.0012 73.2378 29.6362C74.6327 29.2712 75.4609 27.8687 75.0875 26.5051ZM75.0875 26.5051C74.7142 25.1415 73.2814 24.3318 71.8846 24.6968C70.4897 25.0618 69.6615 26.4643 70.0348 27.8279C70.4082 29.1897 71.841 30.0012 73.2378 29.6362C74.6327 29.2712 75.4609 27.8687 75.0875 26.5051ZM67.8534 30.5255H67.8477V30.5292V30.544L67.8856 30.4792V30.4718L67.8534 30.5237V30.5255ZM67.2962 61.4568L54.9696 68.499V69.1233L67.7113 61.8477L67.8477 61.768V46.9851L67.2962 47.2982V61.4586V61.4568ZM67.8477 30.1624V30.1438H67.8155L67.8269 30.1624H67.8458H67.8477ZM67.7814 43.8966V44.3154H67.8477V43.8596L67.7871 43.8948H67.7814V43.8966ZM67.1181 29.2156L67.2564 29.2768L67.2848 29.2879L67.2526 29.2694L67.0839 29.1712L67.0233 29.136L67.0726 29.1767L67.1181 29.2138V29.2156ZM66.4775 29.4509L66.4983 29.4398L66.4832 29.4306L66.4642 29.4417L66.4756 29.4491L66.4775 29.4509ZM26.9181 20.8209L27.481 21.1229L39.6901 14.1511L52.5664 21.5083H52.5683L53.1198 21.1989L39.6901 13.5286L26.9181 20.8246V20.8209ZM39.4532 74.4462H39.9953V48.9842H39.4532V74.4462ZM12.0897 47.4335L11.5382 47.1185V61.7625L24.17 68.9751V68.3508L12.0897 61.4512V47.4316V47.4335ZM12.3456 29.1249L12.2319 29.06L12.1144 29.2582L12.0992 29.2823L12.3608 29.1341L12.3456 29.1267V29.1249ZM12.0897 30.8331L11.542 30.52V30.5422L12.0897 30.8553V30.8331ZM11.5382 44.3116H12.0897L11.5382 43.9967V44.3116ZM11.5382 30.2198L11.3961 30.4588L11.5382 30.5403V30.2198ZM7.10147 24.6931C5.70658 25.0581 4.87836 26.4606 5.25172 27.8242C5.62508 29.186 7.05788 29.9975 8.45468 29.6325C9.84957 29.2675 10.6778 27.865 10.3044 26.5014C9.93107 25.1378 8.49827 24.3281 7.10147 24.6931ZM39.9991 0L6.97374e-06 22.8441V68.5194L39.9991 91.3635L80 68.5194V22.8441L39.9991 0ZM78.3436 67.5893L39.9991 89.4885L1.65834 67.5893V23.776L39.9991 1.87681L78.3436 23.776V67.5893ZM73.2435 29.6325C74.6384 29.2675 75.4666 27.865 75.0932 26.5014C74.7199 25.1378 73.2871 24.3281 71.8903 24.6931C70.4954 25.0581 69.6672 26.4606 70.0405 27.8242C70.4139 29.186 71.8467 29.9975 73.2435 29.6325ZM67.8534 61.7625V46.9796L67.3019 47.2927V61.4531L54.9753 68.4953V69.1196L67.717 61.844L67.8534 61.7643V61.7625ZM67.8534 30.5255V30.5403L67.8913 30.4755V30.4681L67.8591 30.52H67.8534V30.5237V30.5255ZM67.8534 30.1587V30.1401H67.8212L67.8326 30.1587H67.8515H67.8534ZM67.7871 44.3116H67.8534V43.8559L67.7928 43.8911H67.7871V44.3135V44.3116ZM67.1237 29.2119L67.2621 29.2731L67.2905 29.2842L67.2583 29.2657L67.0896 29.1675L67.029 29.1323L67.0783 29.173L67.1237 29.2101V29.2119ZM66.4832 29.4472L66.504 29.4361L66.4888 29.4268L66.4699 29.438L66.4813 29.4454L66.4832 29.4472ZM26.9238 20.8172L27.4867 21.1192L39.6958 14.1474L52.5721 21.5046H52.574L53.1255 21.1952L39.6958 13.5249L26.9238 20.8209V20.8172ZM39.4589 74.4425H40.001V48.9805H39.4589V74.4425ZM12.0897 47.4335L11.5382 47.1185V61.7625L24.17 68.9751V68.3508L12.0897 61.4512V47.4316V47.4335ZM12.3456 29.1249L12.2319 29.06L12.1144 29.2582L12.0992 29.2823L12.3608 29.1341L12.3456 29.1267V29.1249ZM12.0897 30.8331L11.542 30.52V30.5422L12.0897 30.8553V30.8331ZM11.5382 44.3116H12.0897L11.5382 43.9967V44.3116ZM11.5382 30.2198L11.3961 30.4588L11.5382 30.5403V30.2198ZM7.10147 24.6931C5.70658 25.0581 4.87836 26.4606 5.25172 27.8242C5.62508 29.186 7.05788 29.9975 8.45468 29.6325C9.84957 29.2675 10.6778 27.865 10.3044 26.5014C9.93107 25.1378 8.49827 24.3281 7.10147 24.6931ZM10.3044 26.5014C9.93107 25.1378 8.49827 24.3281 7.10147 24.6931C5.70658 25.0581 4.87836 26.4606 5.25172 27.8242C5.62508 29.186 7.05788 29.9975 8.45468 29.6325C9.84957 29.2675 10.6778 27.865 10.3044 26.5014ZM11.3961 30.4588L11.5382 30.5403V30.2198L11.3961 30.4588ZM11.5382 43.9967V44.3116H12.0897L11.5382 43.9967ZM11.5439 30.5218V30.544L12.0916 30.8572V30.8349L11.5439 30.5218ZM12.3456 29.1267L12.2319 29.0619L12.1144 29.2601L12.0992 29.2842L12.3608 29.136L12.3456 29.1286V29.1267ZM12.0897 61.4531V47.4335L11.5382 47.1185V61.7625L24.17 68.9751V68.3508L12.0897 61.4512V61.4531ZM39.4589 48.9805V74.4425H40.001V48.9805H39.4589ZM39.6958 13.523L26.9238 20.8191L27.4867 21.1211L39.6958 14.1493L52.5721 21.5064H52.574L53.1255 21.197L39.6958 13.5268V13.523ZM66.5021 29.4361L66.4869 29.4287L66.468 29.4398L66.4794 29.4472L66.5002 29.438L66.5021 29.4361ZM67.2583 29.2675L67.0896 29.1693L67.029 29.1341L67.0783 29.1749L67.1237 29.2119L67.2621 29.2731L67.2905 29.2842L67.2583 29.2657V29.2675ZM67.7909 43.8911H67.7852V44.3135H67.8515V43.8577L67.7909 43.8929V43.8911ZM67.8193 30.1401L67.8307 30.1587H67.8496V30.1401H67.8174H67.8193ZM67.2981 47.2927V61.4531L54.9715 68.4953V69.1196L67.7132 61.844L67.8496 61.7643V46.9814L67.2981 47.2945V47.2927ZM67.8856 30.4681L67.8553 30.52H67.8496V30.5237V30.5385L67.8875 30.4736V30.4662L67.8856 30.4681ZM75.0894 26.5014C74.7161 25.1378 73.2833 24.3281 71.8865 24.6931C70.4916 25.0581 69.6634 26.4606 70.0367 27.8242C70.4101 29.186 71.8429 29.9975 73.2397 29.6325C74.6346 29.2675 75.4628 27.865 75.0894 26.5014ZM75.0894 26.5014C74.7161 25.1378 73.2833 24.3281 71.8865 24.6931C70.4916 25.0581 69.6634 26.4606 70.0367 27.8242C70.4101 29.186 71.8429 29.9975 73.2397 29.6325C74.6346 29.2675 75.4628 27.865 75.0894 26.5014ZM67.2981 47.2927V61.4531L54.9715 68.4953V69.1196L67.7132 61.844L67.8496 61.7643V46.9814L67.2981 47.2945V47.2927ZM67.8856 30.4681L67.8553 30.52H67.8496V30.5237V30.5385L67.8875 30.4736V30.4662L67.8856 30.4681ZM67.8193 30.1383L67.8307 30.1568H67.8496V30.1383H67.8174H67.8193ZM67.7909 43.8892H67.7852V44.3116H67.8515V43.8559L67.7909 43.8911V43.8892ZM67.2583 29.2657L67.0896 29.1675L67.029 29.1323L67.0783 29.173L67.1237 29.2101L67.2621 29.2712L67.2905 29.2823L67.2583 29.2638V29.2657ZM66.5021 29.4343L66.4869 29.4268L66.468 29.438L66.4794 29.4454L66.5002 29.4361L66.5021 29.4343ZM39.6958 13.5212L26.9238 20.8172L27.4867 21.1192L39.6958 14.1474L52.5721 21.5046H52.574L53.1255 21.1952L39.6958 13.5249V13.5212ZM39.4589 48.9787V74.4407H40.001V48.9787H39.4589ZM12.0897 61.4512V47.4316L11.5382 47.1167V61.7606L24.17 68.9733V68.3489L12.0897 61.4494V61.4512ZM12.3456 29.1249L12.2319 29.06L12.1144 29.2582L12.0992 29.2823L12.3608 29.1341L12.3456 29.1267V29.1249ZM11.5439 30.52V30.5422L12.0916 30.8553V30.8331L11.5439 30.52ZM11.5382 43.9948V44.3098H12.0897L11.5382 43.9948ZM11.3961 30.457L11.5382 30.5385V30.218L11.3961 30.457ZM10.3044 26.4995C9.93107 25.1359 8.49827 24.3263 7.10147 24.6913C5.70658 25.0563 4.87836 26.4588 5.25172 27.8224C5.62508 29.1841 7.05788 29.9956 8.45468 29.6306C9.84957 29.2657 10.6778 27.8631 10.3044 26.4995ZM10.3044 26.4995C9.93107 25.1359 8.49827 24.3263 7.10147 24.6913C5.70658 25.0563 4.87836 26.4588 5.25172 27.8224C5.62508 29.1841 7.05788 29.9956 8.45468 29.6306C9.84957 29.2657 10.6778 27.8631 10.3044 26.4995ZM11.3961 30.457L11.5382 30.5385V30.218L11.3961 30.457ZM11.5382 43.9948V44.3098H12.0897L11.5382 43.9948ZM11.5439 30.52V30.5422L12.0916 30.8553V30.8331L11.5439 30.52ZM12.3456 29.1249L12.2319 29.06L12.1144 29.2582L12.0992 29.2823L12.3608 29.1341L12.3456 29.1267V29.1249ZM12.0897 61.4512V47.4316L11.5382 47.1167V61.7606L24.17 68.9733V68.3489L12.0897 61.4494V61.4512ZM39.4589 48.9787V74.4407H40.001V48.9787H39.4589ZM39.6958 13.5212L26.9238 20.8172L27.4867 21.1192L39.6958 14.1474L52.5721 21.5046H52.574L53.1255 21.1952L39.6958 13.5249V13.5212ZM66.5021 29.4343L66.4869 29.4268L66.468 29.438L66.4794 29.4454L66.5002 29.4361L66.5021 29.4343ZM67.2583 29.2657L67.0896 29.1675L67.029 29.1323L67.0783 29.173L67.1237 29.2101L67.2621 29.2712L67.2905 29.2823L67.2583 29.2638V29.2657ZM67.7909 43.8892H67.7852V44.3116H67.8515V43.8559L67.7909 43.8911V43.8892ZM67.8193 30.1383L67.8307 30.1568H67.8496V30.1383H67.8174H67.8193ZM67.2981 47.2908V61.4512L54.9715 68.4934V69.1178L67.7132 61.8421L67.8496 61.7625V46.9796L67.2981 47.2927V47.2908ZM67.8856 30.4662L67.8553 30.5181H67.8496V30.5218V30.5366L67.8875 30.4718V30.4644L67.8856 30.4662ZM75.0894 26.4995C74.7161 25.1359 73.2833 24.3263 71.8865 24.6913C70.4916 25.0563 69.6634 26.4588 70.0367 27.8224C70.4101 29.1841 71.8429 29.9956 73.2397 29.6306C74.6346 29.2657 75.4628 27.8631 75.0894 26.4995ZM75.0894 26.4995C74.7161 25.1359 73.2833 24.3263 71.8865 24.6913C70.4916 25.0563 69.6634 26.4588 70.0367 27.8224C70.4101 29.1841 71.8429 29.9956 73.2397 29.6306C74.6346 29.2657 75.4628 27.8631 75.0894 26.4995ZM67.2981 47.2908V61.4512L54.9715 68.4934V69.1178L67.7132 61.8421L67.8496 61.7625V46.9796L67.2981 47.2927V47.2908ZM67.789 43.8892H67.7833V44.3116H67.8496V43.8559L67.789 43.8911V43.8892ZM39.6958 13.5212L26.9238 20.8172L27.4867 21.1192L39.6958 14.1474L52.5721 21.5046H52.574L53.1255 21.1952L39.6958 13.5249V13.5212ZM39.4589 48.9787V74.4407H40.001V48.9787H39.4589ZM12.0897 61.4512V47.4316L11.5382 47.1167V61.7606L24.17 68.9733V68.3489L12.0897 61.4494V61.4512ZM12.3456 29.1249L12.2319 29.06L12.1144 29.2582L12.0992 29.2823L12.3608 29.1341L12.3456 29.1267V29.1249ZM11.5382 43.9967V44.3116H12.0897L11.5382 43.9967ZM11.3961 30.4588L11.5382 30.5403V30.2198L11.3961 30.4588ZM11.5439 30.5218V30.544L12.0916 30.8572V30.8349L11.5439 30.5218ZM10.3025 26.5014C9.92917 25.1378 8.49637 24.3281 7.09958 24.6931C5.70468 25.0581 4.87646 26.4606 5.24982 27.8242C5.62319 29.186 7.05599 29.9975 8.45278 29.6325C9.84768 29.2675 10.6759 27.865 10.3025 26.5014ZM10.3025 26.5014C9.92917 25.1378 8.49637 24.3281 7.09958 24.6931C5.70468 25.0581 4.87646 26.4606 5.24982 27.8242C5.62319 29.186 7.05599 29.9975 8.45278 29.6325C9.84768 29.2675 10.6759 27.865 10.3025 26.5014ZM11.3942 30.4588L11.5363 30.5403V30.2198L11.3942 30.4588ZM11.542 30.5218V30.544L12.0897 30.8572V30.8349L11.542 30.5218ZM11.5363 43.9967V44.3116H12.0879L11.5363 43.9967ZM12.3437 29.1249L12.23 29.06L12.1125 29.2582L12.0973 29.2823L12.3589 29.1341L12.3437 29.1267V29.1249ZM12.0879 61.4512V47.4316L11.5363 47.1167V61.7606L24.1681 68.9733V68.3489L12.0879 61.4494V61.4512ZM39.457 48.9787V74.4407H39.9991V48.9787H39.457ZM39.6939 13.5212L26.9219 20.8172L27.4848 21.1192L39.6939 14.1474L52.5702 21.5046H52.5721L53.1236 21.1952L39.6939 13.5249V13.5212ZM67.7909 43.8892H67.7852V44.3116H67.8515V43.8559L67.7909 43.8911V43.8892ZM67.3 47.2908V61.4512L54.9734 68.4934V69.1178L67.7151 61.8421L67.8515 61.7625V46.9796L67.3 47.2927V47.2908ZM75.0913 26.4995C74.718 25.1359 73.2852 24.3263 71.8884 24.6913C70.4935 25.0563 69.6653 26.4588 70.0386 27.8224C70.412 29.1841 71.8448 29.9956 73.2416 29.6306C74.6365 29.2657 75.4647 27.8631 75.0913 26.4995ZM75.0913 26.4995C74.718 25.1359 73.2852 24.3263 71.8884 24.6913C70.4935 25.0563 69.6653 26.4588 70.0386 27.8224C70.412 29.1841 71.8448 29.9956 73.2416 29.6306C74.6365 29.2657 75.4647 27.8631 75.0913 26.4995ZM67.3 47.2908V61.4512L54.9734 68.4934V69.1178L67.7151 61.8421L67.8515 61.7625V46.9796L67.3 47.2927V47.2908ZM67.7909 43.8892H67.7852V44.3116H67.8515V43.8559L67.7909 43.8911V43.8892ZM39.6958 13.5212L26.9238 20.8172L27.4867 21.1192L39.6958 14.1474L52.5721 21.5046H52.574L53.1255 21.1952L39.6958 13.5249V13.5212ZM39.4589 48.9787V74.4407H40.001V48.9787H39.4589ZM12.0897 61.4512V47.4316L11.5382 47.1167V61.7606L24.17 68.9733V68.3489L12.0897 61.4494V61.4512ZM12.3456 29.1249L12.2319 29.06L12.1144 29.2582L12.0992 29.2823L12.3608 29.1341L12.3456 29.1267V29.1249ZM11.5382 43.9967V44.3116H12.0897L11.5382 43.9967ZM11.3961 30.4588L11.5382 30.5403V30.2198L11.3961 30.4588ZM11.5439 30.5218V30.544L12.0916 30.8572V30.8349L11.5439 30.5218ZM10.3025 26.5014C9.92917 25.1378 8.49637 24.3281 7.09958 24.6931C5.70468 25.0581 4.87646 26.4606 5.24982 27.8242C5.62319 29.186 7.05599 29.9975 8.45278 29.6325C9.84768 29.2675 10.6759 27.865 10.3025 26.5014ZM10.3025 26.5014C9.92917 25.1378 8.49637 24.3281 7.09958 24.6931C5.70468 25.0581 4.87646 26.4606 5.24982 27.8242C5.62319 29.186 7.05599 29.9975 8.45278 29.6325C9.84768 29.2675 10.6759 27.865 10.3025 26.5014ZM11.3942 30.4588L11.5363 30.5403V30.2198L11.3942 30.4588ZM11.542 30.5218V30.544L12.0897 30.8572V30.8349L11.542 30.5218ZM11.5363 43.9967V44.3116H12.0879L11.5363 43.9967ZM12.3437 29.1249L12.23 29.06L12.1125 29.2582L12.0973 29.2823L12.3589 29.1341L12.3437 29.1267V29.1249ZM12.0879 61.4512V47.4316L11.5363 47.1167V61.7606L24.1681 68.9733V68.3489L12.0879 61.4494V61.4512ZM39.457 48.9787V74.4407H39.9991V48.9787H39.457ZM39.6939 13.5212L26.9219 20.8172L27.4848 21.1192L39.6939 14.1474L52.5702 21.5046H52.5721L53.1236 21.1952L39.6939 13.5249V13.5212ZM67.7909 43.8892H67.7852V44.3116H67.8515V43.8559L67.7909 43.8911V43.8892ZM67.3 47.2908V61.4512L54.9734 68.4934V69.1178L67.7151 61.8421L67.8515 61.7625V46.9796L67.3 47.2927V47.2908ZM75.0913 26.4995C74.718 25.1359 73.2852 24.3263 71.8884 24.6913C70.4935 25.0563 69.6653 26.4588 70.0386 27.8224C70.412 29.1841 71.8448 29.9956 73.2416 29.6306C74.6365 29.2657 75.4647 27.8631 75.0913 26.4995ZM75.0913 26.4995C74.718 25.1359 73.2852 24.3263 71.8884 24.6913C70.4935 25.0563 69.6653 26.4588 70.0386 27.8224C70.412 29.1841 71.8448 29.9956 73.2416 29.6306C74.6365 29.2657 75.4647 27.8631 75.0913 26.4995ZM67.3 47.2908V61.4512L54.9734 68.4934V69.1178L67.7151 61.8421L67.8515 61.7625V46.9796L67.3 47.2927V47.2908ZM11.3942 30.4588L11.5363 30.5403V30.2198L11.3942 30.4588ZM11.542 30.5218V30.544L12.0897 30.8572V30.8349L11.542 30.5218ZM67.7928 43.8911H67.7871V44.3135H67.8534V43.8577L67.7928 43.8929V43.8911ZM39.6958 13.5212L26.9238 20.8172L27.4867 21.1192L39.6958 14.1474L52.5721 21.5046H52.574L53.1255 21.1952L39.6958 13.5249V13.5212ZM39.4589 48.9787V74.4407H40.001V48.9787H39.4589ZM12.0897 61.4512V47.4316L11.5382 47.1167V61.7606L24.17 68.9733V68.3489L12.0897 61.4494V61.4512ZM12.3456 29.1249L12.2319 29.06L12.1144 29.2582L12.0992 29.2823L12.3608 29.1341L12.3456 29.1267V29.1249ZM11.5382 43.9967V44.3116H12.0897L11.5382 43.9967ZM10.3025 26.5014C9.92917 25.1378 8.49637 24.3281 7.09958 24.6931C5.70468 25.0581 4.87646 26.4606 5.24982 27.8242C5.62319 29.186 7.05599 29.9975 8.45278 29.6325C9.84768 29.2675 10.6759 27.865 10.3025 26.5014ZM67.0309 29.1341L67.0802 29.1749L67.0915 29.1693L67.0309 29.1341ZM66.504 29.4361L66.4888 29.4287L66.4699 29.4398L66.4813 29.4472L66.5021 29.438L66.504 29.4361ZM67.8894 30.4699L67.8591 30.5218H67.8534V30.5255V30.5403L67.8913 30.4755V30.4681L67.8894 30.4699ZM67.8231 30.1401L67.8345 30.1587H67.8534V30.1401H67.8212H67.8231ZM67.2602 29.2675L67.264 29.2731L67.2924 29.2842L67.2602 29.2657V29.2675ZM67.8894 30.4699L67.8591 30.5218H67.8534V30.5255V30.5403L67.8913 30.4755V30.4681L67.8894 30.4699ZM67.8231 30.1401L67.8345 30.1587H67.8534V30.1401H67.8212H67.8231ZM66.4907 29.4287L66.4718 29.4398L66.4832 29.4472L66.5021 29.4361L66.4869 29.4287H66.4907ZM66.4907 29.4287L66.4718 29.4398L66.4832 29.4472L66.5021 29.4361L66.4869 29.4287H66.4907ZM67.2621 29.2675L67.0934 29.1693L67.0328 29.1341L67.0821 29.1749L67.1275 29.2119L67.2659 29.2731L67.2943 29.2842L67.2621 29.2657V29.2675ZM67.8913 30.4699L67.861 30.5218H67.8553V30.5255V30.5403L67.8932 30.4755V30.4681L67.8913 30.4699ZM67.825 30.1401L67.8364 30.1587H67.8553V30.1401H67.8231H67.825ZM67.825 30.1401L67.8364 30.1587H67.8553V30.1401H67.8231H67.825ZM67.8932 30.4699L67.8629 30.5218H67.8572V30.5255V30.5403L67.8951 30.4755V30.4681L67.8932 30.4699ZM67.264 29.2675L67.0953 29.1693L67.0347 29.1341L67.0839 29.1749L67.1294 29.2119L67.2678 29.2731L67.2962 29.2842L67.264 29.2657V29.2675ZM66.4926 29.4287L66.4737 29.4398L66.485 29.4472L66.504 29.4361L66.4888 29.4287H66.4926ZM66.4926 29.4287L66.4737 29.4398L66.485 29.4472L66.504 29.4361L66.4888 29.4287H66.4926ZM67.264 29.2675L67.0953 29.1693L67.0347 29.1341L67.0839 29.1749L67.1294 29.2119L67.2678 29.2731L67.2962 29.2842L67.264 29.2657V29.2675ZM67.8932 30.4699L67.8629 30.5218H67.8572V30.5255V30.5403L67.8951 30.4755V30.4681L67.8932 30.4699ZM67.8269 30.1401L67.8383 30.1587H67.8572V30.1401H67.825H67.8269ZM66.4945 29.4287L66.4756 29.4398L66.4869 29.4472L66.5059 29.4361L66.4907 29.4287H66.4945ZM67.2659 29.2675L67.0972 29.1693L67.0366 29.1341L67.0858 29.1749L67.1313 29.2119L67.2697 29.2731L67.2981 29.2842L67.2659 29.2657V29.2675ZM67.8951 30.4699L67.8648 30.5218H67.8591V30.5255V30.5403L67.897 30.4755V30.4681L67.8951 30.4699ZM67.8288 30.1401L67.8401 30.1587H67.8591V30.1401H67.8269H67.8288ZM67.8288 30.1401L67.8401 30.1587H67.8591V30.1401H67.8269H67.8288ZM67.897 30.4699L67.8667 30.5218H67.861V30.5255V30.5403L67.8989 30.4755V30.4681L67.897 30.4699ZM67.2678 29.2675L67.0991 29.1693L67.0385 29.1341L67.0877 29.1749L67.1332 29.2119L67.2716 29.2731L67.3 29.2842L67.2678 29.2657V29.2675ZM66.4964 29.4287L66.4775 29.4398L66.4888 29.4472L66.5078 29.4361L66.4926 29.4287H66.4964ZM66.4964 29.4287L66.4775 29.4398L66.4888 29.4472L66.5078 29.4361L66.4926 29.4287H66.4964ZM67.2678 29.2675L67.0991 29.1693L67.0385 29.1341L67.0877 29.1749L67.1332 29.2119L67.2716 29.2731L67.3 29.2842L67.2678 29.2657V29.2675ZM67.897 30.4699L67.8667 30.5218H67.861V30.5255V30.5403L67.8989 30.4755V30.4681L67.897 30.4699ZM67.8307 30.1401L67.842 30.1587H67.861V30.1401H67.8288H67.8307ZM67.8307 30.1401L67.842 30.1587H67.861V30.1401H67.8288H67.8307ZM66.4983 29.4287L66.4794 29.4398L66.4907 29.4472L66.5097 29.4361L66.4945 29.4287H66.4983ZM66.4983 29.4287L66.4794 29.4398L66.4907 29.4472L66.5097 29.4361L66.4945 29.4287H66.4983ZM67.8326 30.1401L67.8439 30.1587H67.8629V30.1401H67.8307H67.8326ZM67.9008 30.4699L67.8705 30.5218H67.8648V30.5255V30.5403L67.9027 30.4755V30.4681L67.9008 30.4699ZM66.5002 29.4287L66.4813 29.4398L66.4926 29.4472L66.5116 29.4361L66.4964 29.4287H66.5002ZM67.8534 30.1401H67.8345L67.8458 30.1587H67.8648L67.8534 30.1401ZM67.8648 30.5255V30.5403V30.5237V30.5255ZM67.2716 29.2675L67.1029 29.1693L67.0422 29.1341L67.0915 29.1749L67.137 29.2119L67.2754 29.2731L67.3038 29.2842L67.2716 29.2657V29.2675ZM67.9008 30.4699L67.8705 30.5218H67.8648V30.5255V30.5403L67.9027 30.4755V30.4681L67.9008 30.4699ZM67.8648 30.5255V30.5403V30.5237V30.5255ZM67.8648 30.1401V30.1587H67.8458L67.8345 30.1401H67.8667H67.8648ZM67.9008 30.4773L67.8648 30.5422V30.5274H67.8705L67.9008 30.4718V30.4792V30.4773ZM66.5154 29.438L66.4945 29.4491L66.4832 29.4398L66.5021 29.4287L66.5173 29.4361L66.5154 29.438ZM67.8705 43.8373V44.2931H67.8041V43.8744L67.8705 43.8373ZM12.3646 29.1137L12.3456 29.1249L12.1144 29.2564L12.1049 29.262L12.0897 29.2842L12.0973 29.2805L12.3589 29.1323L12.3778 29.1211L12.3627 29.1137H12.3646ZM67.7871 43.8929V44.2931H67.7928V43.8911H67.7871V43.8929ZM67.8572 29.5917L67.7909 29.5473V29.5695H67.7852L67.2943 29.2879L67.2905 29.2842L67.2621 29.2731L67.1237 29.2119L67.0783 29.1749L67.029 29.1341L55.8793 22.7644L55.3278 23.0738L66.4718 29.438L66.4907 29.4268L66.5059 29.4343L66.485 29.4454L66.4737 29.4361L39.7053 44.7248L12.9312 29.4343L24.7139 22.7052L24.1492 22.4013L12.3854 29.1193L12.3665 29.1304L12.1049 29.2786L12.0973 29.2823L11.6804 29.5213L11.5458 29.601V30.155H11.5818L11.5458 30.2161V30.5366H11.5515V30.5181L12.0992 30.8312V30.8534L11.5515 30.5403V43.9745L12.103 44.2894H13.2079V31.4648L39.7091 46.5998L66.2102 31.4648V44.2894H67.7966V43.8892H67.8022V43.8707L67.8686 43.8336V44.2894H67.9349V29.6325L67.8686 29.588L67.8572 29.5917ZM67.8894 30.4755L67.8534 30.5403V30.5255H67.8591L67.8894 30.4699L67.8534 30.2217L67.8174 30.1605H67.8345L67.8231 30.142H67.8553V30.1605H67.8364L67.861 30.2031L67.897 30.4588L67.8913 30.4699V30.4773L67.8894 30.4755ZM67.8951 30.457L67.8894 30.4681L67.8534 30.2198L67.8174 30.1587H67.8345L67.8591 30.2013L67.8951 30.457Z" fill="var(--fill-0, white)"/>
</g>
</svg>
